<?xml version="1.0" encoding="UTF-8"?>
<svg id="_レイヤー_1" data-name="レイヤー_1" xmlns="http://www.w3.org/2000/svg" version="1.1" viewBox="0 0 858.05 945.25">
  <!-- Generator: Adobe Illustrator 29.6.1, SVG Export Plug-In . SVG Version: 2.1.1 Build 9)  -->
  <defs>
    <style>
      .st0 {
        fill: #dcba8c;
      }

      .st1 {
        fill: #ba66af;
      }

      .st2 {
        fill: #715cc6;
      }

      .st3 {
        fill: #b065ae;
      }

      .st4 {
        fill: #c85ca7;
      }

      .st5 {
        fill: #4d75de;
      }

      .st6 {
        fill: #8856bf;
      }

      .st7 {
        fill: #4faad4;
      }

      .st8 {
        fill: #3cdec5;
      }

      .st9 {
        fill: #b2da77;
      }

      .st10 {
        fill: #28d9ee;
      }

      .st11 {
        fill: #c57cb7;
      }

      .st12 {
        fill: #5d59be;
      }

      .st13 {
        fill: #6a52c5;
      }

      .st14 {
        fill: #9c57bb;
      }

      .st15 {
        fill: #36bbe2;
      }

      .st16 {
        fill: #3879d3;
      }

      .st17 {
        fill: #8f4ec5;
      }

      .st18 {
        fill: #9eda88;
      }

      .st19 {
        fill: #aece87;
      }

      .st20 {
        fill: #46d1cb;
      }

      .st21 {
        fill: #53d0b2;
      }

      .st22 {
        fill: #96d98c;
      }

      .st23 {
        fill: #81d998;
      }

      .st24 {
        fill: #47cad2;
      }

      .st25 {
        fill: #db8680;
      }

      .st26 {
        fill: #645fce;
      }

      .st27 {
        fill: #32d2e2;
      }

      .st28 {
        fill: #57c9c0;
      }

      .st29 {
        fill: #8361dc;
      }

      .st30 {
        fill: #487bd7;
      }

      .st31 {
        fill: #377ed3;
      }

      .st32 {
        fill: #2feda8;
      }

      .st33 {
        fill: #8577ba;
      }

      .st34 {
        fill: #2bd6d4;
      }

      .st35 {
        fill: #5cd7a4;
      }

      .st36 {
        fill: #2cc3e0;
      }

      .st37 {
        fill: #37a1da;
      }

      .st38 {
        fill: #261f84;
      }

      .st39 {
        fill: #6869cb;
      }

      .st40 {
        fill: #8154c3;
      }

      .st41 {
        fill: #975cca;
      }

      .st42 {
        fill: #5bd1c3;
      }

      .st43 {
        fill: #aa5dd4;
      }

      .st44 {
        fill: #d7a57c;
      }

      .st45 {
        fill: #39d0a7;
      }

      .st46 {
        fill: #6685c8;
      }

      .st47 {
        fill: #92f376;
      }

      .st48 {
        fill: #506bce;
      }

      .st49 {
        fill: #5fc3c0;
      }

      .st50 {
        fill: #ce66c6;
      }

      .st51 {
        fill: #8a5ed6;
      }

      .st52 {
        fill: #37e7b0;
      }

      .st53 {
        fill: #d87092;
      }

      .st54 {
        fill: #cfc581;
      }

      .st55 {
        fill: #4bec99;
      }

      .st56 {
        fill: #ea718b;
      }

      .st57 {
        fill: #b1d187;
      }

      .st58 {
        fill: #3986e4;
      }

      .st59 {
        fill: #4370d4;
      }

      .st60 {
        fill: #de8681;
      }

      .st61 {
        fill: #40d3ce;
      }

      .st62 {
        fill: #ce7e98;
      }

      .st63 {
        fill: #d7748e;
      }

      .st64 {
        fill: #dd9d80;
      }

      .st65 {
        fill: #7963d4;
      }

      .st66 {
        fill: #ef967f;
      }

      .st67 {
        fill: #42b4d6;
      }

      .st68 {
        fill: #676cc7;
      }

      .st69 {
        fill: #dd8587;
      }

      .st70 {
        fill: #379ae5;
      }

      .st71 {
        fill: #3b89da;
      }

      .st72 {
        fill: #4778d0;
      }

      .st73 {
        fill: #8c68d1;
      }

      .st74 {
        fill: #3695ed;
      }

      .st75 {
        fill: #de5ba4;
      }

      .st76 {
        fill: #ed649b;
      }

      .st77 {
        fill: #e0a081;
      }

      .st78 {
        fill: #6cd39f;
      }

      .st79 {
        fill: #3495da;
      }

      .st80 {
        fill: #745ec5;
      }

      .st81 {
        fill: #4adab4;
      }

      .st82 {
        fill: #7356c7;
      }

      .st83 {
        fill: #34c3e2;
      }

      .st84 {
        fill: #ac72a6;
      }

      .st85 {
        fill: #a5d97d;
      }

      .st86 {
        fill: #eaa57b;
      }

      .st87 {
        fill: #7887bf;
      }

      .st88 {
        fill: #5d63cf;
      }

      .st89 {
        fill: #5ad7ad;
      }

      .st90 {
        fill: #7b59bd;
      }

      .st91 {
        fill: #f69d7c;
      }

      .st92 {
        fill: #3cd6bf;
      }

      .st93 {
        fill: #2ae2b8;
      }

      .st94 {
        fill: #94c1a2;
      }

      .st95 {
        fill: #86c7c0;
      }

      .st96 {
        fill: #536cde;
      }

      .st97 {
        fill: #955fb8;
      }

      .st98 {
        fill: #4acbcf;
      }
    </style>
  </defs>
  <g>
    <path class="st47" d="M801.98,292.77c-.91,3.16-6.01,5.9-9.15,4.57l-1.38,1.89c-7.63.99-19.77,1.44-25.31-4.18-3.14-1.33-7.86-4.74-6.1-8.39-7.77-2.87-11.28-21.96-8.39-28.97-3.32-1.53-4.03-2.84-.93-5.32-.23-2.99.59-4.26,2.46-3.83l.57-2.23c3.03-2.22,5.73-4.86,8.23-7.65-1.12-.36-1.36-1.1-1.17-2.32-2.12-2.58,7.99-4.25,9.91-3.05,38.22-14.84,66.51,37.71,31.26,59.47Z"/>
    <path class="st50" d="M791.31,636.63l3.28.18c1.64-1.19,7.56,1.08,7.39,3.64,30.66,16.65,15.81,69.19-20.24,63.31-2.83-.07-5.38-1.9-7.97-.03-1.5.99-2.89.12-4.15-2.6-4.24.07-5.42-5.39-5.76-8.07-2.71,1.35-4.85-.89-5.59-3.42-4.4.82-2.79-4.32-3.05-7.07-3.64-11.89-4.05-27.94,4.84-37.55-1.19-2.04.64-3.16,5.48-3.35,1.38-1.34,2.52-1.4,4.43-1.23,1.85-5.15,17.98-7.17,21.35-3.81Z"/>
    <path class="st15" d="M134.09,340.04c-11.65,37.69-30.15,75.06-44.81,110.2,2.13.71,4.09-.05,5.86-2.27,25.39-26.89,51.56-53.6,78.52-80.14,2.51-3.59,5.33-6,8.47-7.21,2.23-1.36,9.17.66,6.86,3.81,1.59,1.17-.41,3.69-1.53,4.84-19.9,21.36-72.82,70.43-88.44,93.51,3.48.66,9.58,7,4.57,8.39-2.56,2.09-3.12,4.09-1.24,7.78l-1.04,1.37c2.21,2.17-2.93,8.09-5.34,6.86-1.15,1.16-2.03,1.36-3.05,0,.58,4.7-6.84,3.31-9.79,1.94l-2.41.35c-.54,1.06-1.81,1.71-3.81,1.96-.62,1.73-1.64,2.61-3.05,2.62-1.63,1.07-2.71.31-3.23-2.28-2.97,0-4.18-1.01-3.63-3.06,2.23-6.77-2.61-8.18-4.22-13.7-3.59-10.65,1.83-15.12,5.74-23.66-.25-3.22,6.68-4.59,9.1-2.91l1.57-.14-.76-1.54c7.23-5.33,50.44-142.96,55.65-106.73Z"/>
    <path class="st32" d="M459.65,57.94c2.57.96,1.08,3.44-1.06,4.39-.03,2.31-.69,3.64-1.99,4l1.18,1.35c-4.14,8.81-13.76,14.73-22.83,17.49l-1.22-1.31-6.88-.23c-2.83,1.69-8.44,3.7-9.89-.53l-1.25,1.18c-7.22-3.16-14.91-8.18-18.21-15.59l1.16-1.61-1.37-1.2c1.15-2.67-.74-3.7-5.64-3.08l-.61-1.82c9.4-2.17.36-14.48,8.07-25.1,18.14-32.35,67.9-14.35,60.55,22.05Z"/>
    <path class="st74" d="M63.19,633.58c1.96-.13,2.12.1.76,1.52l10.42,2.22c3.96-1.73,5.39-1.05,8.86,1.08,17.64-.42,7.25,8.14,16.55,13.47,5.82,2.48,5.92,28.09,0,30.5.93,2.66-.73,5.2-4.96,7.64l-1.14,2.27c1.99,2.29-2.45,5.65-4.57,3.81,1.35,2-4.38,6.39-6.1,4.57-38.24,13.1-61.57-38.7-27.78-60.24.51-.81-.14-2.15-.43-3.04-.82-3.01,6.57-6.24,8.39-3.81Z"/>
    <path class="st10" d="M88.35,232.54c4.55-1.05,7.32,3.77,6.1,7.62,2.33-2.35,8.21,7.9,7.62,9.15,3.27-.77,3.16,7.23,1.2,8.69l-.44,5.79c2.4,1.35,1.28,9.45-1.52,9.91-3.36,4.28-6.5,9.49-6.2,14.89-2.08,2.79-4.58,4.69-7.52,5.7.05,2.16-.97,2.49-2.29.76-1.21.12-2.35-.71-3.44-2.5-2.9,1.14-5.61,1.05-8.14-.24-1.84,2.25-15.85,3.58-17.45,2.78-1.43-.71-1.45-1.6-1.47-3.09-37.09-23.53-5.18-74.69,33.55-59.47Z"/>
    <path class="st29" d="M456.6,884.42c2.81.39,4.56,7.37,2.29,9.15-.73,42.7-58.57,43.91-63.19,1.21-.52-.75-2.53-.46-3.68-1.04-1.34-.68-2.21-1.79-3.27-2.46-.08-2.85,2.06-2.72,6.41.39.22-2.95,1.13-4.61,2.74-4.96-1.36-8.11,14.36-25.55,22.87-22.87-.65-2.62,6.8-1.57,8.39-1.52,0-.66.3-1.6.74-1.54,10.5,1.73,27.77,11.73,26.71,23.65Z"/>
    <path class="st58" d="M99.78,682.37l1.52-.71,40.02,33.97c9.16-5.14,16.51-6.2,26.47-3.02l.61,1.77c2.59-2.07,7.18,4.22,6.1,6.86,2.56-1.22,8.15,5.82,5.34,7.62.75,1.39,1.14,1.75,2.76,2.45-1.19,2.9-1.69,5.74-1.49,8.5l-1.27,1.24c.3,1.15-.15,2.47-1.36,3.94,1.33,1.78,1.78,3.26,1.36,4.44,1.45,1.98-4.13,6.61-6.1,5.34-3.66-1.94-7.58,2.41-11.88,2.98-11.18,1.64-22.26-4.9-26.24-15.18-1.34-4.9-2.4-7.12-7.26-9.56-3.63-3.13-3-5.9,1.77-6.05,4.09,4.2,5.88,3.11,5.38-3.26l-41.83-31.44c-2.82-3.84,5.22-5.65,6.1-9.91Z"/>
    <path class="st43" d="M666.27,702.96c1.1-8.43,17.71,10.09,20.63,11.98,1.05-2.21,2.31-3.15,3.77-2.83.86-.83,2.21-1.02,4.06-.56,3.44-2.46,23.55-1.93,21.86,3.61,1.57-.29,2.91.75,4,3.1,2.1.6,3.05,1.59,2.86,3,2.57.06,3.83,8.21,1.52,9.15,2.95,1.8,3.49,8.89.76,11.44-4.94,13.4-18.51,18.89-31.86,14.7-3.85-.98-4.71-3.66-8.55-.97-6.09-1.64-7.23-6.03-5.45-11.75,0,0-2.17-9.53-2.17-9.53l1.52-.83c-2.56-.3-1.11-7.91,1.52-7.62-.25-1.6.74-3.44,2.96-5.55-5.08-5.73-10.92-10.88-17.53-15.45l.08-1.88Z"/>
    <path class="st61" d="M266.76,141.05c2,3.04-23.31,16.26-26.69,16.77l-.4,1.68c-47.48,25.02-99.31,53.74-145.22,80.66-1.47-1.93-1.59-2.62-1.66-5.21-2,.13-3.22-2.02-4.44-2.41,57.12-31.45,113.34-65.56,171.85-93.78,2.46-.97,8.29-1.3,6.56,2.29Z"/>
    <path class="st93" d="M307.17,109.02c1.33,1.04.88,2.95-1.33,5.72,1.19,1.92,1.13,3.31-.2,4.19,2.6,3.33,2.77,10.04.76,13.72,3.82,1.74-.95,5.27-4.57,7.62l.75,1.57c-6.15,6.33-14.18,8.42-22.69,5.64-1.94.8-3.52.93-4.75.41-1.74,1.72-7.56-2.27-6.86-4.57-4.18-9.6-11.81,2.63-18.3-.76,2.31-1.4,15.42-8.49,15.88-9.29.33-.56-1.14-9.47-.28-12.85,2.62-10.28,15.67-15.54,25.42-13.18,8.51,2.06,5.61,7.41,16.15,1.77Z"/>
    <path class="st96" d="M302.59,801.31l9.53-4.95c4.02.22,2.54,5.98.38,8l.33,1.64c-2.4,1.48-4.51,3.25-6.35,5.31,3.05,6.15,3.59,10.76,1.46,17.17.6,1.38.6,2.49,0,3.33,7,6.78-1.57,8.14-7.62,6.1-9.91,9.03-28.76,3.25-31.83-9.72-1.42-9.16,1.43-10.59-7.82-15.44-1.49-3.47,3.21-4,6.04-3.84,1.56-1.63,3.7-1.08,6.35-.35,3.12-2.45,10.61-9.82,14.3-5.72,2.64-2.09,9.13-1.48,11.44.76-.92-2.19,2.08-3.98,3.81-2.29Z"/>
    <path class="st66" d="M769.96,440.68h1.75s5.08,8.02,5.08,8.02c1.29.27,2.58.39,3.85.37,2.65-4.08,7.24,1.77,6.1,5.34,9.66,12.83,11.02,19.68-.76,32.02.05,3.29-3.36,5.47-6.48,5.48-1.21-2-3.87-1.87-5.72-.91,2.66,3.03-6.44,1.66-6.86-1.52-1.04,1.79-3.81.75-5.34,0-2.77,1.84-8.77-2.94-6.86-6.1-.77-1.22-.76-2.85.01-4.89-.97-3.29-.72-5.47.75-6.55-3.5-1.21-3.24-8.53.76-9.15-1.95-1.23-1.67-4.95.76-5.34-.55-.78-.04-1.83,1.53-3.15-4.83-6.15-4.2-8.07.44-7.44-.15,1.35,5.51,6.31,5.37,4.21l-5.3-12.74,1.01-1.47c-.93-5.65,6.97,1.43,6.1,4.45,1.49-1.23,2.76-1.44,3.81-.63Z"/>
    <path class="st55" d="M590.79,132.66l-.06,1.56c-2.5,1.75-4.82,4.6-6.04,6.82.02,5.79-9.53,7.53-14.54,7.29-8.44.38-16.81-6.64-22.33-10.87-1.76.9-19.6,11.53-14.98,3.58l-.11-1.7,13.32-7.86,2.04.41c1.15-.4,1.92-1.11,2.29-2.29-1.63-1.83-2.75-8.91-.76-10.67-2.76-1.97-.21-7.02,3.05-6.1,6.9-5.44,21.13-7.22,28.74-2.43,9.2,5.79,7.89,12.68,9.38,22.26Z"/>
    <path class="st51" d="M584.69,813.51c5.56-.42,6.01,5.5,5.34,9.91,2.14,19.71-20.27,29.62-35.07,17.54-2.11,1.35-3.37.38-3.78-2.9-3.19.2-4.48-.62-3.85-2.44-1.13-1.38.55-2.62,1.76-2.5-1.13-6.25-.45-11.77,2.05-16.56-1.89-1.49-1.23-2.76,1.97-3.8,1.29-2.91,2.66-3.93,4.13-3.06,3.3-6.18,26.56-5.02,27.45,3.81Z"/>
    <path class="st22" d="M590.79,132.66c41.57,23.31,83.42,46.17,125.04,69.38.02,8.69-7.55,5.91-12.92,3.44-39.88-21.88-79.28-43.36-118.21-64.44-1.21-2.7,4.32-8.39,6.1-8.39Z"/>
    <path class="st83" d="M85.3,295.06c-1.33,6.08-17.52,3.04-21.76,3.95l-17.77,48.02c.6,2.99,1.68,6,3.23,9.01,1.5,4.97-.55,13.5-5.62,14.5.46,2.4-6.15,4.93-7.62,3.05-.96-2.18-4.79-2.05-7.12-3.18-10.3-4.97-9.86-19.13.48-23.66,2.34-1.03,5.55-.6,6.82-3.09,6.59-17.06,14.63-33.78,18.87-51.65,1.13.69,1.97,2.07,3.25,2.1,4.9-1.73,11.54.12,15.43-3.34,6.55,3.43,8.43-3.66,11.82,4.29Z"/>
    <path class="st79" d="M73.86,494.05c.42,5.94-26.82,53.18-29.52,59.28.47,3.29,1.59,6.68,3.37,10.17.82,4.19-4.62,12.49-8.92,10.61.32,2.58-6.6,4.42-8.39,3.05-6.01-4.63-11.42-7.62-8.42-16.43,2.13-6.24,6.17-5.65,10.24-8.05,11.34-16.6,26.97-45.12,34.78-63.96.83,1.73,3.44,1.08,4.57,1.91.98.72.66,3.01,2.29,3.43Z"/>
    <path class="st40" d="M685.33,755.57c-31.22,21.83-62.6,43.55-94.81,63.97l-.49,3.89c-.36-4.24-1.86-7.21-5.34-9.91,30.13-22.79,63.22-41.85,92.36-64.14l2.19.09c1.89,2.53,5,2.78,6.1,6.1Z"/>
    <path class="st82" d="M547.33,835.62c.97,1.4,3.22.34,4.59,1.13,1.96,1.29.41,5.04,3.03,4.21l-96.07,52.61c-.13-2.34-1.47-6.8-2.29-9.15,28.53-17.88,59.89-31.64,88.06-48.84l2.67.05Z"/>
    <path class="st88" d="M397.89,886.7c-2.24,13.72-4.71,1.57-9.15,4.57-29.15-18.28-59.16-35.28-88.44-53.37,5.34-2.12,11.39,2.02,7.62-6.1l1.25-1.02c29.56,18.04,59.13,36.08,88.71,54.13v1.79Z"/>
    <path class="st23" d="M552.67,112.84c-1.82,1.44-3.24,3.72-3.05,6.1l-1.22,1.06c-30.57-17.29-61.15-34.58-91.73-51.88-.64-10.31,2.5-4.73,2.98-10.18,30.61,15.89,65.91,34,93.02,54.9Z"/>
    <path class="st59" d="M267.52,808.17l.76,2.28c-2.75-.02-6.12-.54-7.62,2.29-28.09-20.51-59.92-35.82-86.92-57.94l6.1-5.34c28.81,17.31,57.45,36.79,85.61,55.49,0,0,2.07,3.22,2.07,3.22Z"/>
    <path class="st81" d="M398.66,67.09c-28.07,17.03-57.41,33.76-86.92,48.03-1.15-1.45-2.16-.94-3.05,1.52,1.52,2.03-1.6,4.61-3.05,2.29-.14-1.93-1.44-3.26-1.38-4.07.1-1.38,2.49-4.2,2.91-5.85,27.65-14.81,56.23-32.44,83.87-48.03,2.71,1.38,4.47-1.23,7.28,1.5,2.17,2.1.13,3.24.34,4.6Z"/>
    <path class="st37" d="M43.36,370.54l1.61-.11,31.98,75.49c1.58.36,2.33,1.15,2.24,2.39-1.5,1.53-2.36.12-3.91.41-.36.07-6.48,2.41-6.77,2.64-12.1-25.1-21.01-52.44-32.78-77.77l7.62-3.05Z"/>
    <path class="st60" d="M814.94,368.25c2.17,1.49,10.06.24,8.39,4.57-12.55,27.01-23.5,54.88-36.6,81.58-1.39-1.84-2.75-6.64-6.1-5.34l-1.2-1.08c11.24-26.49,22.49-52.98,33.74-79.48l1.77-.26Z"/>
    <path class="st76" d="M805.79,545.9c-1.19-2.27.41-2.7,2.47-1.56l5.63,8.41,4.86.78c2.33,4.07,4.78,2.59,8.61,3.97,13.39,5.19,8.8,24.31-4.03,26.53.04,2.16-8.01.51-8.22.11.46-1.67.41-3.23-.16-4.68-1.96,1.68-3.54-.85-4.55-2.61-2.87-5-1.66-11.52-.03-16.74l-5.5-12.6.94-1.6Z"/>
    <path class="st63" d="M818.76,553.52c-7.58,6.81-9.96-11.64-12.96-7.62-12-15.96-19.06-36.22-28.36-53.65-1.87.16-3.09-.25-3.66-1.24,4.84-2.61,5.9,2.53,12.2-4.57,7.8,21.45,21.87,47,32.78,67.09Z"/>
    <path class="st91" d="M820.28,342.33c2.55,5.84,2.91,3.02,8.37,4.97,15.1,6.01,7.27,22.19-5.32,25.52-1.62-2.6-6.52-1.81-7.5-2.45-.17-.11-.28-1.46-.89-2.12-2.48.94-4.28-2.78-5.12-4.87-2.35-5.81.59-13.21,2.84-18-.79-4.44,5.25-6.36,7.62-3.05Z"/>
    <path class="st31" d="M63.19,633.58c-2.92.68-6.11,1.78-8.39,3.81-6.4-20.11-17.87-39.97-24.4-60.23,2.56-1.53,5.93-1.85,8.39-3.05l2.42,2.62c6.67,18.25,14.03,36.19,22.09,53.81l-.12,3.04Z"/>
    <path class="st17" d="M773.77,703.72c-13.66,14.91-31.42,26.61-48.03,38.12.63-3.55-.28-7.95-.76-11.44,14.21-9.14,27.75-20.03,39.5-32.05l1.67.79c5.68-.27,4.18,1.8,7.62,4.57Z"/>
    <path class="st85" d="M715.83,202.04c.5.28,1.03.49,1.52.76,7.23,4.09,45.41,25.47,53.37,30.5-3.01.73-3.29.86-6.08,1.93-1.23.47-3.01-.05-3.84,1.12-1.45.12-3.11.14-4.43-.42-15.73-8.38-33.2-16.4-46.65-27.79-.69-2.61,2.48-.78,3.9-2.59,1.23-1.57-.28-4.14,2.2-3.51Z"/>
    <path class="st16" d="M127.99,727.36c-2.48,6.52,10.79,5.64,7.62,15.25-10.76-11.6-42.16-26.32-52.61-41.93,1.08-.47,4.82-3.68,6.1-4.57,12.97,6.92,23.17,18.36,35.24,26.83,1.51,1.19,2.61,2.82,3.65,4.43Z"/>
    <path class="st4" d="M814.94,579.44c1.33.78.66,2.33.76,3.82,2.24-.84,6.08.92,7.63.76l-21.35,56.42c-2.31-1.29-8.15-3.51-10.67-3.81-.61-1.67,1.41-1.96,2.78-1.86,7.36-16.95,14.05-37.1,20.86-55.33Z"/>
    <path class="st44" d="M801.98,292.77c3.59,16.19,12.14,33.66,18.3,49.56-3.35-.27-6.02-.32-7.62,3.05l-1.89-1.24c-5.66-15.86-11.64-31.46-17.94-46.79,1.55-.42,7.52-3.57,9.15-4.57Z"/>
    <path class="st22" d="M719.64,204.33l-2.28,1.52v-3.05c1.07.6,1.8,1.26,2.28,1.52Z"/>
    <path class="st9" d="M664.75,250.07c-6.46-2.96-.84-14.3,5.78-13.64,5.93-7.71,16.06-9.52,21.67-.08,19.09,6.88,41.39,6.34,60.99,12.2-1.34.85-.42,2.9-1.15,4.57-2.25,2.56-2.6,1.2-.38,4.58l-56.83-10.73c-1.52.19-5.95,8.93-8.74,10.73-.47,1.84-.96,2.04-.98.44.88,4.2.01,6.11-2.58,5.73l-1.34,7.21c-.83.71-2.02.32-3.01.18-.78-3.76-1.82-7.52-3.11-11.28-4.91-1.28-11.75-4.15-10.33-9.9Z"/>
    <path class="st54" d="M760.05,286.67c1.22,1.73,1.46,2.87,2.25,4.04.85,1.27,4,1.75,3.85,4.35-13.99,11.75-31.74,22.34-42.57,37.13-.15.63,1.06,6.81,1.4,7.86.49,2.48-2.94,6.44-5.34,5.34,0,0-1.76-.16-1.76-.16l-3.23-6.12c-9.15-1.01-11.72-7.28-8.84-15.52l-.17-2.17-12.88-25.62.96-1.49,1.62-.64c15.7,7.59,13.75,16.32,22.8,26.21,2.51,1.14,10.15-5.45,12.54-7.29,10.06-7.75,20.48-16.86,29.37-25.9Z"/>
    <path class="st14" d="M755.47,687.71c1,1.18,3.07-.43,3.75.04.64,2.78,1.7,3.81,4.63,5.3l-40.41,28.21c-3.9-1.16-4.71-2.85-6.86-6.1,13.81-7.3,25.71-18.79,38.88-27.45Z"/>
    <path class="st1" d="M769.96,640.44c-1.38.55-2.96,2.29-3.86,2.63-1.86.71-5.22.08-6.06,1.95l-28.21-21.35c-3.36-1.26-.95-4.32.59-6.25-.43-1.32-.45-2.09.94-2.9,3.84,6.82,14.45,10.43,20.83,15.39,5,3.54,9.85,9.12,15.77,10.53Z"/>
    <path class="st70" d="M101.31,480.33c28.04,30.1,62.32,54.7,89.56,85.42.77,1.2,1.22,2.34,1.18,3.78,12.21-5.72,24.78,2.97,23.75,16.24,17.19,12.44,38.55,19.57,55.91,31.78,3.21-15.85,21.25-28.05,35.83-17.52,3.25,2.39,4.96,7.42,8.77,7.62,2.56,2.14,3.56,8.43-.76,9.15,3.54,7.41-6.88,23.1-15.25,22.11-4.99,9.21-12.68-2.69-19.59,3.57l-1.75-.52c-2.18.87-3.28-.95-3.31-5.47-1.14-.94-1.81-1.62-.5-2.92-.64-1.12-1.15-2.54-1.52-4.25-20.18-11.84-40.75-22.81-61.71-32.92-3.78,4.5-15.1,5.41-18.35.57-3.02-.94-5.9-2.1-8.63-3.48.19-7.4-.82-14.17,2.97-20.93-15.51-12.64-29.21-27.23-43.88-40.79-16.15-14.68-33.61-28.11-48.04-44.59,1.82-2.05,4.61-4.29,5.34-6.86Z"/>
    <path class="st71" d="M92.92,487.19c14.11,36.72,35.51,79.67,51.31,117.18,5.55,1.86,12.55,6.59,16.17,11.65l24.06-23.2.72-4.23c1.16,6.29.48,3.46,4.88,5.41,1.43.63,2.82,1.48,3.51,2.98-10.11,8.88-18.04,20.28-28.5,29.28l3.03,12c-1.28,1.63-2.5,3.31-4.75,1.16-2.08,3.23-3.69,3.57-4.85,1.03l-1.68-.15-4.88-13.11c-5.68-2.24-11.08-5.11-16.19-8.61l-37.84,27c2.02,2.52,2.65,4.62,1.89,6.31-2.04,1.09-5.1-2.47-5.74-3.84-.75-1.61.36-2.89-.15-4.34-2.34-7.2-12.18-.99-14.32-7.09-1.68.04-2.5,2.66-5.89,2.18-2.29-.32-8.36-1.95-9.73-3.68,9.33-1.26,18.08,2.15,26.87,3.66l43.2-32.37c-12.29-39.16-33.63-78.18-49.86-116.15-.91-1.13-2.24-.7-3.43-.76,3.1-2.47,10.59,1.27,12.2-2.29Z"/>
    <path class="st24" d="M192.04,240.16c4.38.61,6.18,9.29.44,7.3l-1.97,1.08c2.07,5.73-6.45,10.16-11.3,12.14-1.4,6.22-1.53,15.25.71,22.34-.34.98-1.2,2.9-1.77,3.76-2.58-.18-5.07-.47-7.46-.88-7.24,13.84-18.46,24.95-28.62,36.62-1.3,2.34,2.44,4.8,1.83,7.05-2.56,6.03-8.21,1.81-9.8,10.46-4.27-.56-.07-6.07-6.1-5.34.47-1.2.28-3.29,1.52-4.57,1.3-.35,2.71.29,4.22,1.93,5.58-3.44,7.19-12.1,2.64-16.42l.19-2.25c14.78-14.76,29.86-32.15,32.22-53.44l1.9-.73c-2.02-3.16,3.14-4.95,6.12-5.06l11.49-5.88,1.37-7.35,1.6-.77c.22-.67.47-.66.76,0Z"/>
    <path class="st27" d="M201.19,333.18c.52-3.47,11.16,3.96,12.2,6.1,5.62-1.32,4.12,7.12.76,9.15-.38,5.84-1.9,10.86-6.92,14.04-5.01,2.82-14.74-.32-18.24,1.97-1.1-3.07-4.81-1.85-6.86-3.81,6.3-6.9-7.48-15.49,9.91-24.4,1.03-2.98,7.51-5.96,9.15-3.05Z"/>
    <path class="st7" d="M176.03,462.79c.51,1.25.28,2.05-1.01,2.05-.08,2.38-.5,4.49-1.28,6.33-23.2.73-47.01-.98-70.14,0,2.33-2.86-4.05-6.44-4.57-8.39h77.01Z"/>
    <path class="st45" d="M433.73,83.86c-2.7.47-5.39,1.27-8.39.76l-2.28,96.07c-.56,2.37-7.49,3.7-8.39.76.73-32.6,2.6-65.7,2.29-98.35,8.1,2.54,7.36-.91,10.97-.76,1.77.07,3.78,1.78,5.8,1.52Z"/>
    <path class="st15" d="M136.38,315.64c5.7-1.03,3.39,8.77,3.68,11.65-.16.57-5.27,6.21-5.87,6.3-4.06-.48-4.9-4.83-7.33-8.05-10.09-11.59-24.72-20.71-36.26-30.85-.95-.53-1.98-.47-3.01-.4.89-2.29,5.72-5.09,6.42-6.83-.13-5.39,1.96-11.31,7.3-13.75-1.4,5.37-3.22,8.88-5.77,13.74l38.07,30.42c.85-.8,1.94-1.47,2.78-2.23Z"/>
    <path class="st98" d="M156.97,238.64c1.31.53,1.79,1.76,1.42,3.69,1.76,1.6,3.62,3.45.87,4.7l-55.63,10.7c.64,2.27-.6,4.53-.79,6.07-.45-2.61.95-13.61-.76-14.49l54.9-10.67Z"/>
    <path class="st13" d="M420.77,744.13c6.88-10.55,6.47,119.55,8.39,118.18-2.22,2.37-5.34,1.03-8.39,1.52l-6.1-118.18c.26-2.08,4.88-3.41,6.1-1.52Z"/>
    <path class="st30" d="M278.96,641.96c-33.03,27.84-74.92,48.11-104.45,79.29-1.56-1.89-3.54-5.88-6.1-6.86,32.29-30.73,72.98-51.67,106.74-80.82,3.67,3.41.98,5.82,3.81,8.39Z"/>
    <path class="st48" d="M282.77,720.49c-2.92-1.92-6.41-2.51-7.27-6.88-5.64,1.97-92.82,24.82-95.66,27.47-1.18-4.38,0-6.01,1.52-9.54.26-.61-1.27-.11-1.53-.88-.21-.61.13-1.38.01-1.78l2.61,1.58c30.57-7.74,60.73-17.18,91.43-24.42.52-.23.77-2.08,1.26-3.08,2.38.64,2.5,3.05.37,7.23,2.88,2.06,8.55,6.49,7.26,10.31Z"/>
    <path class="st97" d="M690.67,712.11c-.88,1.08-2.5,4.82-4.08,4.51-4.43-2.73-15.46-16.95-20.32-13.66l-80.05-60.23c6.28,32.79.65,42.94-9.15,72.43-2.55.78-9.94-.38-11.44-2.29-.71-1.76,1.68-2.52,2.84-2.12,9.66-22.52,12.04-43.02,7.87-67.15l1.49-2.4c1.26-3.01,9.05-7.36,12.2-6.86,30.91,27.99,68.59,50.81,100.64,77.77Z"/>
    <path class="st6" d="M680.76,725.83c-.54.8-1.49,6.41-1.52,7.62-32.73.92-65.9-4-98.35-1.52-2.34-1.48-.6-6.37.8-8.46l-.03-2.21,99.12,4.57Z"/>
    <path class="st20" d="M275.14,147.91c-28.57,28.08-66.22,50.52-92.25,80.82-1.64.81-2.26-.06-1.85-2.59-1.66-.52-2.93-1.57-2.63-3.44,26.59-29.77,61.34-51.58,89.87-79.37l6.86,4.57Z"/>
    <path class="st89" d="M407.04,189.84l-.97,7.3-1.31,1.09c-7.82-8.1-32.92-21.49-43.71-27.58-18.98-9.74-39.26-23.88-59.22-30.37-.48-6.01,5.17-1.58,4.57-7.62,34.71,15.75,68.25,36.93,100.64,57.18Z"/>
    <path class="st26" d="M395.61,739.56c4.04-1.84,6.41-1.28,7.11,1.69,1.87-.16,4.1-.32,3.56,2.12-31.03,20.52-62.5,40.95-93.78,60.99l.76-6.86c-3.36,1.41-7.38,2.48-10.67,3.81,30.05-21.65,63.82-38.94,93.02-61.76Z"/>
    <path class="st12" d="M296.49,725.07c3.56,25.81-.64,52.98,2.29,78.53-1.3.73-8.14-1.02-11.44-.76,5.09.64.44-76.02,1.52-78.53,1.84-1.57,7.43-2.45,7.62.76Z"/>
    <path class="st53" d="M773.01,492.53c-10.83,36.33-30.7,69.71-43.46,105.22-1.77,2.49-3.8.96-6.1-4.57,15.89-33.79,27.24-70.05,43.46-103.69,2.76.65,3.9.92,6.1,3.05Z"/>
    <path class="st64" d="M769.96,440.68l-4.19,3.03c-1.57-1.33-.86-3.19-1.86-4.98-.22-.39-3.18-3.8-3.85-1.86-14-30.27-26.64-61.13-40.41-91.49l5.34-5.34c11.88,32.95,32.5,67.51,44.98,100.64Z"/>
    <path class="st25" d="M756.24,462.79c-1.8,2.69-1.77,6.11-.76,9.15h-78.53l-.54-.91c4.6-4.27,4.31-6.41-.88-6.41l-.11-1.83h80.82Z"/>
    <path class="st77" d="M704.39,404.09l-1.57-2.87c-4.89-4.32-8.51-9.69.92-6.93.97,1.83,2.5,2.99,4.61,3.48l10.93,10.56c12.29,14.03,26.45,23.66,37.72,38.45-2.26,1.95,1.73,3.84,2.47,5.53,2.15,4.9-2.05,3.86-2.47,5.14l-52.61-53.37Z"/>
    <path class="st69" d="M761.57,489.48c-11.83,12.33-24.76,23.55-37.36,35.07-7.84,5.06-6.53-3.82-1.5-7.49l1.5-3.19c9.47-8.58,23.25-20.46,30.5-30.5.55,2.59,4.45,5.04,6.86,6.1Z"/>
    <path class="st35" d="M532.84,141.05c-.29,2.36.73,1.56,2.22,1.08,5.63-.73,13.89-11.62,16.08-2.6-33.99,19.42-68.81,37.71-101.82,58.71-1.32,7.86,2.95,5.77,7.21,9.55-1.15,2.13-2.15,4.28-2.99,6.45-8.89,4.48-10.49-8.26-6.77-14.12-2.12-3.34-2.58-6.57-1.62-10.28,29.58-12.88,59.28-32.99,87.68-48.8Z"/>
    <path class="st35" d="M548.09,131.9c.15-.12,2.23-2.14,2.29-2.29.07,1.54-.74,2.3-2.29,2.29Z"/>
    <path class="st2" d="M433.73,732.69l1.23,3.73c41.66,22.85,83.39,45.95,122.28,73.28-1.16.57-1.95,3.1-3.09,4.16-1.58,1.48-2.63-.04-3.01,2.7-38.28-28.18-80.57-50.41-121.97-73.61-3.72-1.88-3.81,2.08-8.4,1.18-2.38-4.31,4.36-5.31,7.75-4.8.68-1.17,2.85-11.98,5.21-6.63Z"/>
    <path class="st93" d="M311.74,115.12c-.99.56-2.38,1.09-3.05,1.52-1.93-3.67,3.09-7.15,3.05-1.52Z"/>
    <path class="st18" d="M530.56,231.01c5.29-.1,15.67,5.8,20.19,5.34,1.71-.17,3.11-2.67,4.71-3.69,6.49-4.13,18.06-4,22.51,3.16,2.03,3.26.82,5.6,4.43,5.86,3.92.74,1.97,8.6-1.52,9.15,3.03.73-6.64,10.76-8.39,8.39-.32,1.77-2.06,2.39-5.21,1.84-1.8,2.66-3.37,2.3-4.7-1.08-3.91,5.85-15.36-7.3-15.16-12.4-7.55-4.2-15.75-7.34-24.61-9.43-3.88-7.27,5.17-3.31,7.76-7.14Z"/>
    <path class="st19" d="M692.19,236.35c-2.93-1.88-5.07-4.43-8.06-5.34-3.43.04-11.69,3.18-12.69,6.69-6.74-.02-9.88,6.46-6.69,12.37l-.51,1.53c-27.47.25-54.94.5-82.41.75l-.94-1.52c1.19-2.01,3.14-7.11,1.52-9.15,25.21.86,56.02-.17,80.46-1.5,3.39-13.98,23.26-18.41,29.33-3.84Z"/>
    <path class="st78" d="M530.56,231.01c1.42,5.64-6.55,1.59-8.39,5.34-21.67-3.03-42.42-13.34-63.65-19.12-9.79-4.63-4.4-5.06-3.45-10.6-1.91.46-2.32-1.02-3.05-1.53l78.53,25.92Z"/>
    <path class="st57" d="M686.09,257.7c-.01,13.51,14.23,30.98,20.59,43.46-5.02-1.13-13.37-5.24-15.19-10.25,4.11-4.98,2.91-5.85-3.11-5-.12.1-1.05-.19-1.54.52-8.49,15.76-15.07,33.36-22.74,49.62-.23,2.27,5.72,6.42,6.57,10.64-.06,5.25-.43,15.99-5.16,18.51-3.13-2.66-2.8-.4-5.59.14-13.14,2.52-23.04-5.52-21.1-19.19-3,.62-10.32-2.53-4.52-4.83-.64-3.25.36-4.44,3-3.56.52-1.96.88-1.93,1.52,0l2.29.76.66-1.56c4.49-1.95,9.07-3.67,13.74-5.16,8.32-18.03,16.02-36.18,23.12-54.47-.83-2.64-.63-4.61.61-5.9,2.45-2.93-.35-10.65,5.34-9.14.58-.96-1.44-5.55,1.52-4.58Z"/>
    <path class="st11" d="M593.08,607.65c3.36-.9,2.57,6.29,2.29,8.39,1.82,13.11-5.95,21.12-17.54,25.16-3.19,5.46-24.97-5.56-22.11-11.44-1.76-.24-2.52-1.65-2.27-4.22-1.71-1.05-2.85-2.04-.78-3.41-.49-2.75.01-4.53,1.52-5.34-2.06-1.38-1.04-7.73.76-9.15,12.57-11.6,25.37-10.68,38.12,0Z"/>
    <path class="st56" d="M663.22,569.53l1.78-.53c1.68,2.39,3.27,4.18,5.08,5.86,1.57.5,3.55,13.28,2.29,16.01,1.1,2.81-2.23,8.25-5.34,7.62-8.08,6.96-19.86,4.51-25.92-3.81-5.47-.84-4.87-8.04-3.05-12.2.99-12.05,14.83-18.16,25.16-12.96Z"/>
    <path class="st75" d="M723.45,593.17c4.15-1.05,1.49,5.32,6.1,4.57-4.55,10.45,3.71,8.38,4.4,20.11-.32,1.41-3.06,2.21-2.11,5.82-3.13-1.81-5.07,3.36-7.84,4.73-7.56,4.03-14.33-3.08-18.08-8.55-1.55-1.78.33-8.75,3.05-8.39,4.61-6.31,12.77-10.11,14.49-18.3Z"/>
    <path class="st84" d="M641.11,594.69l-45.75,21.35c-2.45-1.86-.54-6.68-2.29-8.39l43-20.66,1.98-4.5c-.66,5.22-.08,7.9,3.05,12.2Z"/>
    <path class="st3" d="M708.97,611.47c-1.39,2.46-1.7,5.84-3.05,8.39-4.62-3.8-16.65-8.68-22.62-12.07-5.38-3.05-10.5-7.17-16.26-9.28,1.34-1.15,4.56-5.95,5.34-7.62.48,2.43,4.32,4.28,6.35,5.47,9.56,5.58,20.3,10.24,30.25,15.12Z"/>
    <path class="st38" d="M228.63,522.27c11.96-3.93,20.8-15.03,31.63-21.37,4.92,19.81,30.22,28.03,48.09,22.16,14.43-4.74,17.71-19.87,4.38-28.1-26.2-16.17-80.67-12.65-84.13-56.16-4.76-59.98,75.25-69.71,114.32-42.65,2.08,1.44,12.82,10.53,11.92,12.52l-24.58,23.54c-.66.28-1.15,0-1.74-.27-1.83-.83-7.47-7.75-10.76-9.87-10.54-6.79-31.79-9.09-43.16-3.64-12.05,5.78-9.91,17.77.78,23.91,27.64,15.88,71.71,9.22,82.29,49.61,17.63,67.33-85.33,85.71-122.58,41.76-1.26-1.48-7.77-10.01-6.47-11.44Z"/>
    <polygon class="st38" points="621.29 388.07 621.29 421.62 571.73 421.62 570.97 556.57 533.23 556.57 531.32 421.62 478.71 421.62 478.71 388.07 621.29 388.07"/>
    <path class="st38" d="M461.18,388.07c-.16,12.58.2,25.19.03,37.77-.33,24.45.75,52.18-.8,76.2-2.62,40.68-36.74,62.57-75.63,55.06-3.56-.69-18.02-4.91-18.73-8.63-.67-3.53,7.95-22.19,6.85-27.96.13-.6.47-1.08,1.07-1.26,1.61-.49,14.76,5.62,18.98,6.05,14.78,1.49,30.11-6.77,30.11-23.25v-113.98h38.12Z"/>
    <path class="st49" d="M282,277.52c3.5-5.14,7.9,2.69,6.85,6.5-4.54,12.05-8.98,24.15-13.3,36.31-2.77,3.63-2.42,4.37,1.07,2.22,25.63-.17,50.76-.38,75.39-.63l1.66,1.35.81,1.56c3.74,2.98,4.23,5.51,1.48,7.58-24.79-2.62-56.44-1.85-81.19-.76-17.52,2.03-43.27,10.88-60.62,16.77.58-3.22,3.19-8.65-.76-9.15,14.62-7.06,32.15-9.49,47.76-15.17,6.74-15.54,13.09-31.12,19.06-46.74l1.8.16Z"/>
    <path class="st95" d="M403.23,324.03c1.98-2.03,199.59-6.68,154.12,6.48l-.11,1.14c-53.61-1.02-110.57-2.06-163.92.76-2.35-.53,1.05-7.38,2.05-8.16,1.17-.9,6.28-.88,7.86-.23Z"/>
    <path class="st92" d="M361.3,308.78c1.45-.3,3.23-.33,5.33-.11,10.97-5.15,25.2.45,26.83,13.08l8.57.05c1.16.11,1.37,1.05,1.2,2.22-2.02.06-4.17-.37-6.11.37-2.87,3.29-4.1,10.38-6.2,14.39-9.93,15.93-36.99,8.92-35.12-10.79-6.97-3.2,1.08-6.24,1.68-11.59-3.63-4.34-2.78-12.49,3.81-7.62Z"/>
    <path class="st46" d="M451.26,607.65c2.4,1.26,6.76,3.84,6.08,6.86h9.8c1.6,2.22,1.94,3.84-1.61,3.87-49.97-.7-100.09,1.66-149.98-1.58,2.58-3.45.39-5.31.76-9.15,44.97-.04,89.98.06,134.95,0Z"/>
    <path class="st94" d="M572.49,259.22l7.01,64.65c19.23,4.69,38.91,7.95,57.79,13.88-2.72-.6-.95,2.12-1.63,4.11-.5,1.47-3.62.65-1.42,3.52-25.9-7.38-49.9-13.19-77.01-13.72-5.18-3.22,4.25-2.44,5.33-4.97.65-1.51-2.14-1.26-2.28-2.66l.85-1.52c2.76.34,5.46.21,8.1-.4l-8.05-61.01,1.39-1.12c2.32.22,1.05.14,1.9,2.28,1.96-4.74,4.67-1.71,8.01-3.05Z"/>
    <path class="st87" d="M554.96,607.65c.47,3.26-.35,6.09-.76,9.15-38.6,3.35-79.43-1.43-118.18-.77,4.15-4.36,14.75.27,20.58-2.29-1.49-2.25-5-2.96-5.34-6.09,34.55-.04,69.14.03,103.69,0Z"/>
    <path class="st62" d="M724.21,513.88c1.59,6.22-5.39,5.37-3.8,11.44l3.8-.76c-18.17,16.62-36.54,33.13-54.13,50.32-4.23.82-3.36-2.65-6.86-5.34,20.1-18.79,40.95-36.81,60.99-55.66Z"/>
    <path class="st86" d="M675.42,462.79c1.9,1.61,5.01-.33,5.72,2.97.65,3-2.7,4.53-4.2,6.18-5.83,6.42-11.06,12.76-20.35,7.01-19-12.62,9.26-36.79,18.83-16.16Z"/>
    <path class="st36" d="M173.74,471.18c-1.12-2.87-1.27-7.54,2.29-8.39.78-.99.97-2.26,2.26-3.46,12.66-11.74,28.39,3.43,19.5,15.69-6.31,8.84-19.39,4.45-24.05-3.85Z"/>
    <path class="st0" d="M669.32,358.34c22.77,20.57,43.81,43.15,65.57,64.81-.65,1.8-2.07-.18-2.68-.75-4.59-4.27-5.3-4.78-10.32-8.02-1.01-.65-.02-1.97-.66-3.07-.46-.8-12.49-12.07-13.38-12.63-1.33-.83-2.76.31-4.21.07.96-3.73-2.24-4.35-5.34-3.44,2.55,1.93,6.94,5.81,6.1,8.77l-38.88-38.88c1.12-1.98,1.04-6.94,3.81-6.86Z"/>
    <path class="st67" d="M179.08,285.15l1.85.41c7.6,14.69,16.9,30.89,20.26,47.62-1.83-.27-7.59,2.24-9.15,3.05,1.21-1.97-.42-4.87-1.16-6.85-5.56-14.88-13.38-29.16-20.19-43.47,2.81-2.49,5.9-.11,8.39-.76Z"/>
    <path class="st5" d="M306.4,695.33c4.05-1,6.29,5.08,3.81,7.62.66,1.6.1,2.1-1.52,2.29,3.04,1,3.31,7.94-.76,7.62-1.09,1.35-2.67,3.63-4.18,5.35-1.79,2.04-7.32,4.85-7.26,6.85-2.88-1.42-4.19.39-7.62-.76-5.77-1.83-7.84-7.02-11.49-11.01-.85-.81-3.56-1.39-3.76-2.38-.08-.41,2.86-5.73,1.52-7.96,3.54-7.19,6.92-9.13,13.6-13.46.41-15.87,1.34-31.8,3.17-47.53,2.41-.91,6.27-1.94,8.39-3.05l-3.63,52.9c3.01,4.37,4.69,4.91,9.73,3.52Z"/>
    <path class="st72" d="M166.88,639.68c4.59,14.1,11.67,29.41,14.3,43.87-.29,1.63-7.67,1.63-8.6.37-3.82-12.33-8.9-30.85-14.09-43.48,2.51,1.65,3.31-2.09,3.05-3.81l5.33,3.05Z"/>
    <path class="st34" d="M188.23,211.19c3.35,3.43-7.9,9.53-8.38,11.83-.68,1.69,3.8,1.73,3.78,3.04-3.69,2.52,2.69,4.76,4.16,7.3.56.79,3.4,6.27,3.48,6.81.1.67-1.45,8.52-1.73,8.94-.81,1.23-10.16,5.6-12.2,6.48-4.17.86-4.12.08-6.66,3.63-5.99-3.27-10.2-7.81-11.85-14.45-.3-.54-1.68-.57-1.88-1.34-.15-.58-.15-4.3.02-4.8.26-.79,9.26-9.87,10.66-11.06,7.29-5.04,14.2-10.08,20.59-16.38Z"/>
    <path class="st42" d="M273.62,244.74c1.86-2.91,9.63,8.06.76,9.15-14.06-2.98-29.4-1.7-43.83-3.06-13.31-.83-26.64-2.47-40.04-2.28,1.81-4.23,3.16-.8,3.81-1.53.99-1.12-1.06-5.74-2.28-6.86l81.58,4.57Z"/>
    <path class="st52" d="M423.05,180.69c1.86,1.11,5.93-.09,8.39.76,6.73.97,16.48,7.16,14.8,14.52,2.46,3.6,2.64,3.92.48,8.01-.43,3.05.64,5.69-.8,8.73,2.37,1.66-4.79,7.74-6.67,8.83-7.41,4.32-16.06,3.35-23.21-1.08-2.44-1.51-7.46-4.86-5.96-7.75-1.28-.03-1.93-.83-1.95-2.41-3.06-1.47-3.93-2.95-2.63-4.45,3.85-2.53,1.9-4.87-.76-7.62-.7-1.13.56-8.01.82-8.34.14-.18,1.06-.09,1.47-.04,4.12,2.67,7.38-5.23,7.62-8.39,2.75.74,6.12-.77,8.39-.76Z"/>
    <path class="st45" d="M431.44,181.46c-1.52-.06-3.06.09-4.57,0,1.31-2.02,3.51-.2,4.57,0Z"/>
    <path class="st20" d="M176.03,221.86c1.79-3.05,5.01-4.69,7.62-6.86-.08,1.53-7.11,9.57-7.62,6.86Z"/>
    <path class="st65" d="M411.62,712.11c.49-2.56,8.37-3.12,8.79-.7l1.12,1.46c4.65-2.55,10.03,4.23,11.98,8.46,8.29-.47,6.58,8.7.98,10.6-.25.27-.52.5-.76.76-.09.1-1.08-.34-1.59.45-.92,1.41-1.1,6.49-2.97,7.61-.85.51-7.05-1.49-8.39,3.37-10.09,4.56-6.47-3.13-14.49-.76-1.18-1.05-3.4-.36-4.4-.94-.55-.32-.73-2.46-2.15-2.72-1.04-.19-3.23,1.57-4.12-.15,2.81-2.29,7.49-5.49,3.81-9.15-.88-3.64-.56-6.63.95-9l3.62-.15c-3.65-1.75,5.26-11.86,7.62-9.15Z"/>
    <path class="st80" d="M551.91,722.02c-.57,1.87-.88,3.92-.93,6.16-1.29.96-2,1.96-2.12,2.99-37.62-3.04-76.68.57-114.36.76,2.86-3.85,3.27-10.11,9.41-9.99,35.52-.95,72.21-3.73,108,.08Z"/>
    <path class="st41" d="M565.63,712.87c16.13-.85,10.74,6.79,18.3,9.16.64.74-1.53,2.64-1.92,3.78-.64,1.9-.56,4.35-1.13,6.12-2.65,8.19-15.34,10.68-22.39,6.76-2.59-1.44-5.61-6.63-6.76-7.36-.79-.5-1.99-.07-2.87-.17-3.49-1.45.67-3,.77-3.55.6-3.15-1.79-2.81-3.06-4.83,1.92-.17,3.9.67,5.34-.77-1.93-5.5,9.83-13.86,13.72-9.15Z"/>
    <path class="st8" d="M273.62,244.74c3.3-10.14,14.99-15.2,24.01-8.38,2.71,2.05,2.85,5.35,6.49,4.57,4.07-.91,1.95,3.75.09,5.86,3.51.69,2.61,4.44.38,6.56-.02,2.15-.43,3.85-1.23,5.11,1.86,2.45,3.96,4.87,6.86,6.1,2.17-.75,3.4.33,2.29,2.29,2.35,5.97-4.14,3.14-6.6,0-2.61.54-4.98.29-7.13-.76-4.8,1.35-4.36,12.62-9.91,15.25-3.03-.35-1.62-5.21-6.86-3.81,1.48-4.2,2.45-9.4,3.82-13.72-5.28.2-10.43-5.24-11.44-9.92-.55-2.05,2.76-2.03,2.88-3.42.04-.49-2.5-5.48-3.64-5.73Z"/>
    <path class="st21" d="M405.52,205.85c1.86,3.55,4.55,1.85,4.57,6.86-31.2,16.23-70.54,22.8-102.13,37.41-.98-.62-4.25-1.9-5.37-2.35-1.3-1.83,4.39-4.61,1.52-6.85,32.86-13.69,68.81-21.04,101.4-35.07Z"/>
    <path class="st39" d="M403.99,721.26c-.79,1.27-2.45.22-3.1,1.26-1.29,2.09,1.27,5.85-1.48,7.89l-91.49-17.54c2.92-3.62.6-4.46.76-7.62l.7-.95c31.31,4.68,62.62,9.78,93.93,15.3l.67,1.66Z"/>
    <path class="st54" d="M692.19,292.77c-1.5-1.73-3.28-4.58-3.81-6.86-.02-3.73,7.45-1.54,7.6,1.18.2.89-3.86,3.48-3.79,5.68Z"/>
    <path class="st94" d="M641.11,338.52c-.84,0-1.91.21-2.29-.76.81.11,1.91-.29,2.29.76Z"/>
    <path class="st33" d="M552.67,622.14c-.36,1.6,1.75,1.66,2.14,2.79.51,1.45-.03,2.9.91,4.84l-116.65,25.16-.9-.57c1.51-3.58,1.02-5.8-1.47-6.67l.08-1.15,115.89-24.4Z"/>
    <path class="st28" d="M312.5,266.85c16.13,14.11,33.11,27.31,48.8,41.93-6.22-1.93-4.12,2.29-3.81,7.62-19.1-16.77-38.36-35.14-58.71-50.32,2.41.42,4.88-1.14,7.2-.78,2.61.41,5.29,7.04,6.52,1.54Z"/>
    <path class="st73" d="M397.13,657.21c6.49-2.37,7.63-1.75,9.25-8.67,2.59-4.74,11.54-9.95,16.95-9.58,6.35.44,9.13,4.34,13.45,7.57,1.76,1.32,3.16-.09,3.65,2.85s-.82,3.24-1.36,5.53c-.15,7.37-6.14,14.53-12.96,16.77-.91,2.72-7.87,1.98-8.39-.76l-1.47,1.08c-3.51-2.04-6.63-4.6-9.38-7.69-2.59.73-4.56.65-5.92-.25l-1.89.15c.03-3.03-.71-4.57-1.92-7.01Z"/>
    <path class="st68" d="M397.13,657.21c3.64,1.37,3.07,2.8,3.2,6.35l.62.51c-29.4,14.1-60.13,27.82-90.73,38.88-.79-3.08-.45-6.13-3.81-7.62,29.23-9.77,60.87-28.19,90.73-38.12Z"/>
    <path class="st90" d="M426.1,671.7c-.02,13.7-7.44,27.69-4.57,41.17-1.7-.68-1.72-1.44-1.85-1.44-1.67.07-6.74.4-8.06.68l6.1-41.17c1.98.62,6.41,1.14,8.39.76Z"/>
    <path class="st28" d="M310.21,264.56c-2.99.07-5.96-3.53-6.86-6.1,2.39,1.9,4.58,4.07,6.86,6.1Z"/>
  </g>
  <g>
    <path class="st47" d="M801.98,292.77c-.91,3.16-6.01,5.9-9.15,4.57l-1.38,1.89c-7.63.99-19.77,1.44-25.31-4.18-3.14-1.33-7.86-4.74-6.1-8.39-7.77-2.87-11.28-21.96-8.39-28.97-3.32-1.53-4.03-2.84-.93-5.32-.23-2.99.59-4.26,2.46-3.83l.57-2.23c3.03-2.22,5.73-4.86,8.23-7.65-1.12-.36-1.36-1.1-1.17-2.32-2.12-2.58,7.99-4.25,9.91-3.05,38.22-14.84,66.51,37.71,31.26,59.47Z"/>
    <path class="st50" d="M791.31,636.63l3.28.18c1.64-1.19,7.56,1.08,7.39,3.64,30.66,16.65,15.81,69.19-20.24,63.31-2.83-.07-5.38-1.9-7.97-.03-1.5.99-2.89.12-4.15-2.6-4.24.07-5.42-5.39-5.76-8.07-2.71,1.35-4.85-.89-5.59-3.42-4.4.82-2.79-4.32-3.05-7.07-3.64-11.89-4.05-27.94,4.84-37.55-1.19-2.04.64-3.16,5.48-3.35,1.38-1.34,2.52-1.4,4.43-1.23,1.85-5.15,17.98-7.17,21.35-3.81Z"/>
    <path class="st15" d="M134.09,340.04c-11.65,37.69-30.15,75.06-44.81,110.2,2.13.71,4.09-.05,5.86-2.27,25.39-26.89,51.56-53.6,78.52-80.14,2.51-3.59,5.33-6,8.47-7.21,2.23-1.36,9.17.66,6.86,3.81,1.59,1.17-.41,3.69-1.53,4.84-19.9,21.36-72.82,70.43-88.44,93.51,3.48.66,9.58,7,4.57,8.39-2.56,2.09-3.12,4.09-1.24,7.78l-1.04,1.37c2.21,2.17-2.93,8.09-5.34,6.86-1.15,1.16-2.03,1.36-3.05,0,.58,4.7-6.84,3.31-9.79,1.94l-2.41.35c-.54,1.06-1.81,1.71-3.81,1.96-.62,1.73-1.64,2.61-3.05,2.62-1.63,1.07-2.71.31-3.23-2.28-2.97,0-4.18-1.01-3.63-3.06,2.23-6.77-2.61-8.18-4.22-13.7-3.59-10.65,1.83-15.12,5.74-23.66-.25-3.22,6.68-4.59,9.1-2.91l1.57-.14-.76-1.54c7.23-5.33,50.44-142.96,55.65-106.73Z"/>
    <path class="st32" d="M459.65,57.94c2.57.96,1.08,3.44-1.06,4.39-.03,2.31-.69,3.64-1.99,4l1.18,1.35c-4.14,8.81-13.76,14.73-22.83,17.49l-1.22-1.31-6.88-.23c-2.83,1.69-8.44,3.7-9.89-.53l-1.25,1.18c-7.22-3.16-14.91-8.18-18.21-15.59l1.16-1.61-1.37-1.2c1.15-2.67-.74-3.7-5.64-3.08l-.61-1.82c9.4-2.17.36-14.48,8.07-25.1,18.14-32.35,67.9-14.35,60.55,22.05Z"/>
    <path class="st74" d="M63.19,633.58c1.96-.13,2.12.1.76,1.52l10.42,2.22c3.96-1.73,5.39-1.05,8.86,1.08,17.64-.42,7.25,8.14,16.55,13.47,5.82,2.48,5.92,28.09,0,30.5.93,2.66-.73,5.2-4.96,7.64l-1.14,2.27c1.99,2.29-2.45,5.65-4.57,3.81,1.35,2-4.38,6.39-6.1,4.57-38.24,13.1-61.57-38.7-27.78-60.24.51-.81-.14-2.15-.43-3.04-.82-3.01,6.57-6.24,8.39-3.81Z"/>
    <path class="st10" d="M88.35,232.54c4.55-1.05,7.32,3.77,6.1,7.62,2.33-2.35,8.21,7.9,7.62,9.15,3.27-.77,3.16,7.23,1.2,8.69l-.44,5.79c2.4,1.35,1.28,9.45-1.52,9.91-3.36,4.28-6.5,9.49-6.2,14.89-2.08,2.79-4.58,4.69-7.52,5.7.05,2.16-.97,2.49-2.29.76-1.21.12-2.35-.71-3.44-2.5-2.9,1.14-5.61,1.05-8.14-.24-1.84,2.25-15.85,3.58-17.45,2.78-1.43-.71-1.45-1.6-1.47-3.09-37.09-23.53-5.18-74.69,33.55-59.47Z"/>
    <path class="st29" d="M456.6,884.42c2.81.39,4.56,7.37,2.29,9.15-.73,42.7-58.57,43.91-63.19,1.21-.52-.75-2.53-.46-3.68-1.04-1.34-.68-2.21-1.79-3.27-2.46-.08-2.85,2.06-2.72,6.41.39.22-2.95,1.13-4.61,2.74-4.96-1.36-8.11,14.36-25.55,22.87-22.87-.65-2.62,6.8-1.57,8.39-1.52,0-.66.3-1.6.74-1.54,10.5,1.73,27.77,11.73,26.71,23.65Z"/>
    <path class="st58" d="M99.78,682.37l1.52-.71,40.02,33.97c9.16-5.14,16.51-6.2,26.47-3.02l.61,1.77c2.59-2.07,7.18,4.22,6.1,6.86,2.56-1.22,8.15,5.82,5.34,7.62.75,1.39,1.14,1.75,2.76,2.45-1.19,2.9-1.69,5.74-1.49,8.5l-1.27,1.24c.3,1.15-.15,2.47-1.36,3.94,1.33,1.78,1.78,3.26,1.36,4.44,1.45,1.98-4.13,6.61-6.1,5.34-3.66-1.94-7.58,2.41-11.88,2.98-11.18,1.64-22.26-4.9-26.24-15.18-1.34-4.9-2.4-7.12-7.26-9.56-3.63-3.13-3-5.9,1.77-6.05,4.09,4.2,5.88,3.11,5.38-3.26l-41.83-31.44c-2.82-3.84,5.22-5.65,6.1-9.91Z"/>
    <path class="st43" d="M666.27,702.96c1.1-8.43,17.71,10.09,20.63,11.98,1.05-2.21,2.31-3.15,3.77-2.83.86-.83,2.21-1.02,4.06-.56,3.44-2.46,23.55-1.93,21.86,3.61,1.57-.29,2.91.75,4,3.1,2.1.6,3.05,1.59,2.86,3,2.57.06,3.83,8.21,1.52,9.15,2.95,1.8,3.49,8.89.76,11.44-4.94,13.4-18.51,18.89-31.86,14.7-3.85-.98-4.71-3.66-8.55-.97-6.09-1.64-7.23-6.03-5.45-11.75,0,0-2.17-9.53-2.17-9.53l1.52-.83c-2.56-.3-1.11-7.91,1.52-7.62-.25-1.6.74-3.44,2.96-5.55-5.08-5.73-10.92-10.88-17.53-15.45l.08-1.88Z"/>
    <path class="st61" d="M266.76,141.05c2,3.04-23.31,16.26-26.69,16.77l-.4,1.68c-47.48,25.02-99.31,53.74-145.22,80.66-1.47-1.93-1.59-2.62-1.66-5.21-2,.13-3.22-2.02-4.44-2.41,57.12-31.45,113.34-65.56,171.85-93.78,2.46-.97,8.29-1.3,6.56,2.29Z"/>
    <path class="st93" d="M307.17,109.02c1.33,1.04.88,2.95-1.33,5.72,1.19,1.92,1.13,3.31-.2,4.19,2.6,3.33,2.77,10.04.76,13.72,3.82,1.74-.95,5.27-4.57,7.62l.75,1.57c-6.15,6.33-14.18,8.42-22.69,5.64-1.94.8-3.52.93-4.75.41-1.74,1.72-7.56-2.27-6.86-4.57-4.18-9.6-11.81,2.63-18.3-.76,2.31-1.4,15.42-8.49,15.88-9.29.33-.56-1.14-9.47-.28-12.85,2.62-10.28,15.67-15.54,25.42-13.18,8.51,2.06,5.61,7.41,16.15,1.77Z"/>
    <path class="st96" d="M302.59,801.31l9.53-4.95c4.02.22,2.54,5.98.38,8l.33,1.64c-2.4,1.48-4.51,3.25-6.35,5.31,3.05,6.15,3.59,10.76,1.46,17.17.6,1.38.6,2.49,0,3.33,7,6.78-1.57,8.14-7.62,6.1-9.91,9.03-28.76,3.25-31.83-9.72-1.42-9.16,1.43-10.59-7.82-15.44-1.49-3.47,3.21-4,6.04-3.84,1.56-1.63,3.7-1.08,6.35-.35,3.12-2.45,10.61-9.82,14.3-5.72,2.64-2.09,9.13-1.48,11.44.76-.92-2.19,2.08-3.98,3.81-2.29Z"/>
    <path class="st66" d="M769.96,440.68h1.75s5.08,8.02,5.08,8.02c1.29.27,2.58.39,3.85.37,2.65-4.08,7.24,1.77,6.1,5.34,9.66,12.83,11.02,19.68-.76,32.02.05,3.29-3.36,5.47-6.48,5.48-1.21-2-3.87-1.87-5.72-.91,2.66,3.03-6.44,1.66-6.86-1.52-1.04,1.79-3.81.75-5.34,0-2.77,1.84-8.77-2.94-6.86-6.1-.77-1.22-.76-2.85.01-4.89-.97-3.29-.72-5.47.75-6.55-3.5-1.21-3.24-8.53.76-9.15-1.95-1.23-1.67-4.95.76-5.34-.55-.78-.04-1.83,1.53-3.15-4.83-6.15-4.2-8.07.44-7.44-.15,1.35,5.51,6.31,5.37,4.21l-5.3-12.74,1.01-1.47c-.93-5.65,6.97,1.43,6.1,4.45,1.49-1.23,2.76-1.44,3.81-.63Z"/>
    <path class="st55" d="M590.79,132.66l-.06,1.56c-2.5,1.75-4.82,4.6-6.04,6.82.02,5.79-9.53,7.53-14.54,7.29-8.44.38-16.81-6.64-22.33-10.87-1.76.9-19.6,11.53-14.98,3.58l-.11-1.7,13.32-7.86,2.04.41c1.15-.4,1.92-1.11,2.29-2.29-1.63-1.83-2.75-8.91-.76-10.67-2.76-1.97-.21-7.02,3.05-6.1,6.9-5.44,21.13-7.22,28.74-2.43,9.2,5.79,7.89,12.68,9.38,22.26Z"/>
    <path class="st51" d="M584.69,813.51c5.56-.42,6.01,5.5,5.34,9.91,2.14,19.71-20.27,29.62-35.07,17.54-2.11,1.35-3.37.38-3.78-2.9-3.19.2-4.48-.62-3.85-2.44-1.13-1.38.55-2.62,1.76-2.5-1.13-6.25-.45-11.77,2.05-16.56-1.89-1.49-1.23-2.76,1.97-3.8,1.29-2.91,2.66-3.93,4.13-3.06,3.3-6.18,26.56-5.02,27.45,3.81Z"/>
    <path class="st22" d="M590.79,132.66c41.57,23.31,83.42,46.17,125.04,69.38.02,8.69-7.55,5.91-12.92,3.44-39.88-21.88-79.28-43.36-118.21-64.44-1.21-2.7,4.32-8.39,6.1-8.39Z"/>
    <path class="st83" d="M85.3,295.06c-1.33,6.08-17.52,3.04-21.76,3.95l-17.77,48.02c.6,2.99,1.68,6,3.23,9.01,1.5,4.97-.55,13.5-5.62,14.5.46,2.4-6.15,4.93-7.62,3.05-.96-2.18-4.79-2.05-7.12-3.18-10.3-4.97-9.86-19.13.48-23.66,2.34-1.03,5.55-.6,6.82-3.09,6.59-17.06,14.63-33.78,18.87-51.65,1.13.69,1.97,2.07,3.25,2.1,4.9-1.73,11.54.12,15.43-3.34,6.55,3.43,8.43-3.66,11.82,4.29Z"/>
    <path class="st79" d="M73.86,494.05c.42,5.94-26.82,53.18-29.52,59.28.47,3.29,1.59,6.68,3.37,10.17.82,4.19-4.62,12.49-8.92,10.61.32,2.58-6.6,4.42-8.39,3.05-6.01-4.63-11.42-7.62-8.42-16.43,2.13-6.24,6.17-5.65,10.24-8.05,11.34-16.6,26.97-45.12,34.78-63.96.83,1.73,3.44,1.08,4.57,1.91.98.72.66,3.01,2.29,3.43Z"/>
    <path class="st40" d="M685.33,755.57c-31.22,21.83-62.6,43.55-94.81,63.97l-.49,3.89c-.36-4.24-1.86-7.21-5.34-9.91,30.13-22.79,63.22-41.85,92.36-64.14l2.19.09c1.89,2.53,5,2.78,6.1,6.1Z"/>
    <path class="st82" d="M547.33,835.62c.97,1.4,3.22.34,4.59,1.13,1.96,1.29.41,5.04,3.03,4.21l-96.07,52.61c-.13-2.34-1.47-6.8-2.29-9.15,28.53-17.88,59.89-31.64,88.06-48.84l2.67.05Z"/>
    <path class="st88" d="M397.89,886.7c-2.24,13.72-4.71,1.57-9.15,4.57-29.15-18.28-59.16-35.28-88.44-53.37,5.34-2.12,11.39,2.02,7.62-6.1l1.25-1.02c29.56,18.04,59.13,36.08,88.71,54.13v1.79Z"/>
    <path class="st23" d="M552.67,112.84c-1.82,1.44-3.24,3.72-3.05,6.1l-1.22,1.06c-30.57-17.29-61.15-34.58-91.73-51.88-.64-10.31,2.5-4.73,2.98-10.18,30.61,15.89,65.91,34,93.02,54.9Z"/>
    <path class="st59" d="M267.52,808.17l.76,2.28c-2.75-.02-6.12-.54-7.62,2.29-28.09-20.51-59.92-35.82-86.92-57.94l6.1-5.34c28.81,17.31,57.45,36.79,85.61,55.49,0,0,2.07,3.22,2.07,3.22Z"/>
    <path class="st81" d="M398.66,67.09c-28.07,17.03-57.41,33.76-86.92,48.03-1.15-1.45-2.16-.94-3.05,1.52,1.52,2.03-1.6,4.61-3.05,2.29-.14-1.93-1.44-3.26-1.38-4.07.1-1.38,2.49-4.2,2.91-5.85,27.65-14.81,56.23-32.44,83.87-48.03,2.71,1.38,4.47-1.23,7.28,1.5,2.17,2.1.13,3.24.34,4.6Z"/>
    <path class="st37" d="M43.36,370.54l1.61-.11,31.98,75.49c1.58.36,2.33,1.15,2.24,2.39-1.5,1.53-2.36.12-3.91.41-.36.07-6.48,2.41-6.77,2.64-12.1-25.1-21.01-52.44-32.78-77.77l7.62-3.05Z"/>
    <path class="st60" d="M814.94,368.25c2.17,1.49,10.06.24,8.39,4.57-12.55,27.01-23.5,54.88-36.6,81.58-1.39-1.84-2.75-6.64-6.1-5.34l-1.2-1.08c11.24-26.49,22.49-52.98,33.74-79.48l1.77-.26Z"/>
    <path class="st76" d="M805.79,545.9c-1.19-2.27.41-2.7,2.47-1.56l5.63,8.41,4.86.78c2.33,4.07,4.78,2.59,8.61,3.97,13.39,5.19,8.8,24.31-4.03,26.53.04,2.16-8.01.51-8.22.11.46-1.67.41-3.23-.16-4.68-1.96,1.68-3.54-.85-4.55-2.61-2.87-5-1.66-11.52-.03-16.74l-5.5-12.6.94-1.6Z"/>
    <path class="st63" d="M818.76,553.52c-7.58,6.81-9.96-11.64-12.96-7.62-12-15.96-19.06-36.22-28.36-53.65-1.87.16-3.09-.25-3.66-1.24,4.84-2.61,5.9,2.53,12.2-4.57,7.8,21.45,21.87,47,32.78,67.09Z"/>
    <path class="st91" d="M820.28,342.33c2.55,5.84,2.91,3.02,8.37,4.97,15.1,6.01,7.27,22.19-5.32,25.52-1.62-2.6-6.52-1.81-7.5-2.45-.17-.11-.28-1.46-.89-2.12-2.48.94-4.28-2.78-5.12-4.87-2.35-5.81.59-13.21,2.84-18-.79-4.44,5.25-6.36,7.62-3.05Z"/>
    <path class="st31" d="M63.19,633.58c-2.92.68-6.11,1.78-8.39,3.81-6.4-20.11-17.87-39.97-24.4-60.23,2.56-1.53,5.93-1.85,8.39-3.05l2.42,2.62c6.67,18.25,14.03,36.19,22.09,53.81l-.12,3.04Z"/>
    <path class="st17" d="M773.77,703.72c-13.66,14.91-31.42,26.61-48.03,38.12.63-3.55-.28-7.95-.76-11.44,14.21-9.14,27.75-20.03,39.5-32.05l1.67.79c5.68-.27,4.18,1.8,7.62,4.57Z"/>
    <path class="st85" d="M715.83,202.04c.5.28,1.03.49,1.52.76,7.23,4.09,45.41,25.47,53.37,30.5-3.01.73-3.29.86-6.08,1.93-1.23.47-3.01-.05-3.84,1.12-1.45.12-3.11.14-4.43-.42-15.73-8.38-33.2-16.4-46.65-27.79-.69-2.61,2.48-.78,3.9-2.59,1.23-1.57-.28-4.14,2.2-3.51Z"/>
    <path class="st16" d="M127.99,727.36c-2.48,6.52,10.79,5.64,7.62,15.25-10.76-11.6-42.16-26.32-52.61-41.93,1.08-.47,4.82-3.68,6.1-4.57,12.97,6.92,23.17,18.36,35.24,26.83,1.51,1.19,2.61,2.82,3.65,4.43Z"/>
    <path class="st4" d="M814.94,579.44c1.33.78.66,2.33.76,3.82,2.24-.84,6.08.92,7.63.76l-21.35,56.42c-2.31-1.29-8.15-3.51-10.67-3.81-.61-1.67,1.41-1.96,2.78-1.86,7.36-16.95,14.05-37.1,20.86-55.33Z"/>
    <path class="st44" d="M801.98,292.77c3.59,16.19,12.14,33.66,18.3,49.56-3.35-.27-6.02-.32-7.62,3.05l-1.89-1.24c-5.66-15.86-11.64-31.46-17.94-46.79,1.55-.42,7.52-3.57,9.15-4.57Z"/>
    <path class="st22" d="M719.64,204.33l-2.28,1.52v-3.05c1.07.6,1.8,1.26,2.28,1.52Z"/>
    <path class="st9" d="M664.75,250.07c-6.46-2.96-.84-14.3,5.78-13.64,5.93-7.71,16.06-9.52,21.67-.08,19.09,6.88,41.39,6.34,60.99,12.2-1.34.85-.42,2.9-1.15,4.57-2.25,2.56-2.6,1.2-.38,4.58l-56.83-10.73c-1.52.19-5.95,8.93-8.74,10.73-.47,1.84-.96,2.04-.98.44.88,4.2.01,6.11-2.58,5.73l-1.34,7.21c-.83.71-2.02.32-3.01.18-.78-3.76-1.82-7.52-3.11-11.28-4.91-1.28-11.75-4.15-10.33-9.9Z"/>
    <path class="st54" d="M760.05,286.67c1.22,1.73,1.46,2.87,2.25,4.04.85,1.27,4,1.75,3.85,4.35-13.99,11.75-31.74,22.34-42.57,37.13-.15.63,1.06,6.81,1.4,7.86.49,2.48-2.94,6.44-5.34,5.34,0,0-1.76-.16-1.76-.16l-3.23-6.12c-9.15-1.01-11.72-7.28-8.84-15.52l-.17-2.17-12.88-25.62.96-1.49,1.62-.64c15.7,7.59,13.75,16.32,22.8,26.21,2.51,1.14,10.15-5.45,12.54-7.29,10.06-7.75,20.48-16.86,29.37-25.9Z"/>
    <path class="st14" d="M755.47,687.71c1,1.18,3.07-.43,3.75.04.64,2.78,1.7,3.81,4.63,5.3l-40.41,28.21c-3.9-1.16-4.71-2.85-6.86-6.1,13.81-7.3,25.71-18.79,38.88-27.45Z"/>
    <path class="st1" d="M769.96,640.44c-1.38.55-2.96,2.29-3.86,2.63-1.86.71-5.22.08-6.06,1.95l-28.21-21.35c-3.36-1.26-.95-4.32.59-6.25-.43-1.32-.45-2.09.94-2.9,3.84,6.82,14.45,10.43,20.83,15.39,5,3.54,9.85,9.12,15.77,10.53Z"/>
    <path class="st70" d="M101.31,480.33c28.04,30.1,62.32,54.7,89.56,85.42.77,1.2,1.22,2.34,1.18,3.78,12.21-5.72,24.78,2.97,23.75,16.24,17.19,12.44,38.55,19.57,55.91,31.78,3.21-15.85,21.25-28.05,35.83-17.52,3.25,2.39,4.96,7.42,8.77,7.62,2.56,2.14,3.56,8.43-.76,9.15,3.54,7.41-6.88,23.1-15.25,22.11-4.99,9.21-12.68-2.69-19.59,3.57l-1.75-.52c-2.18.87-3.28-.95-3.31-5.47-1.14-.94-1.81-1.62-.5-2.92-.64-1.12-1.15-2.54-1.52-4.25-20.18-11.84-40.75-22.81-61.71-32.92-3.78,4.5-15.1,5.41-18.35.57-3.02-.94-5.9-2.1-8.63-3.48.19-7.4-.82-14.17,2.97-20.93-15.51-12.64-29.21-27.23-43.88-40.79-16.15-14.68-33.61-28.11-48.04-44.59,1.82-2.05,4.61-4.29,5.34-6.86Z"/>
    <path class="st71" d="M92.92,487.19c14.11,36.72,35.51,79.67,51.31,117.18,5.55,1.86,12.55,6.59,16.17,11.65l24.06-23.2.72-4.23c1.16,6.29.48,3.46,4.88,5.41,1.43.63,2.82,1.48,3.51,2.98-10.11,8.88-18.04,20.28-28.5,29.28l3.03,12c-1.28,1.63-2.5,3.31-4.75,1.16-2.08,3.23-3.69,3.57-4.85,1.03l-1.68-.15-4.88-13.11c-5.68-2.24-11.08-5.11-16.19-8.61l-37.84,27c2.02,2.52,2.65,4.62,1.89,6.31-2.04,1.09-5.1-2.47-5.74-3.84-.75-1.61.36-2.89-.15-4.34-2.34-7.2-12.18-.99-14.32-7.09-1.68.04-2.5,2.66-5.89,2.18-2.29-.32-8.36-1.95-9.73-3.68,9.33-1.26,18.08,2.15,26.87,3.66l43.2-32.37c-12.29-39.16-33.63-78.18-49.86-116.15-.91-1.13-2.24-.7-3.43-.76,3.1-2.47,10.59,1.27,12.2-2.29Z"/>
    <path class="st24" d="M192.04,240.16c4.38.61,6.18,9.29.44,7.3l-1.97,1.08c2.07,5.73-6.45,10.16-11.3,12.14-1.4,6.22-1.53,15.25.71,22.34-.34.98-1.2,2.9-1.77,3.76-2.58-.18-5.07-.47-7.46-.88-7.24,13.84-18.46,24.95-28.62,36.62-1.3,2.34,2.44,4.8,1.83,7.05-2.56,6.03-8.21,1.81-9.8,10.46-4.27-.56-.07-6.07-6.1-5.34.47-1.2.28-3.29,1.52-4.57,1.3-.35,2.71.29,4.22,1.93,5.58-3.44,7.19-12.1,2.64-16.42l.19-2.25c14.78-14.76,29.86-32.15,32.22-53.44l1.9-.73c-2.02-3.16,3.14-4.95,6.12-5.06l11.49-5.88,1.37-7.35,1.6-.77c.22-.67.47-.66.76,0Z"/>
    <path class="st27" d="M201.19,333.18c.52-3.47,11.16,3.96,12.2,6.1,5.62-1.32,4.12,7.12.76,9.15-.38,5.84-1.9,10.86-6.92,14.04-5.01,2.82-14.74-.32-18.24,1.97-1.1-3.07-4.81-1.85-6.86-3.81,6.3-6.9-7.48-15.49,9.91-24.4,1.03-2.98,7.51-5.96,9.15-3.05Z"/>
    <path class="st7" d="M176.03,462.79c.51,1.25.28,2.05-1.01,2.05-.08,2.38-.5,4.49-1.28,6.33-23.2.73-47.01-.98-70.14,0,2.33-2.86-4.05-6.44-4.57-8.39h77.01Z"/>
    <path class="st45" d="M433.73,83.86c-2.7.47-5.39,1.27-8.39.76l-2.28,96.07c-.56,2.37-7.49,3.7-8.39.76.73-32.6,2.6-65.7,2.29-98.35,8.1,2.54,7.36-.91,10.97-.76,1.77.07,3.78,1.78,5.8,1.52Z"/>
    <path class="st15" d="M136.38,315.64c5.7-1.03,3.39,8.77,3.68,11.65-.16.57-5.27,6.21-5.87,6.3-4.06-.48-4.9-4.83-7.33-8.05-10.09-11.59-24.72-20.71-36.26-30.85-.95-.53-1.98-.47-3.01-.4.89-2.29,5.72-5.09,6.42-6.83-.13-5.39,1.96-11.31,7.3-13.75-1.4,5.37-3.22,8.88-5.77,13.74l38.07,30.42c.85-.8,1.94-1.47,2.78-2.23Z"/>
    <path class="st98" d="M156.97,238.64c1.31.53,1.79,1.76,1.42,3.69,1.76,1.6,3.62,3.45.87,4.7l-55.63,10.7c.64,2.27-.6,4.53-.79,6.07-.45-2.61.95-13.61-.76-14.49l54.9-10.67Z"/>
    <path class="st13" d="M420.77,744.13c6.88-10.55,6.47,119.55,8.39,118.18-2.22,2.37-5.34,1.03-8.39,1.52l-6.1-118.18c.26-2.08,4.88-3.41,6.1-1.52Z"/>
    <path class="st30" d="M278.96,641.96c-33.03,27.84-74.92,48.11-104.45,79.29-1.56-1.89-3.54-5.88-6.1-6.86,32.29-30.73,72.98-51.67,106.74-80.82,3.67,3.41.98,5.82,3.81,8.39Z"/>
    <path class="st48" d="M282.77,720.49c-2.92-1.92-6.41-2.51-7.27-6.88-5.64,1.97-92.82,24.82-95.66,27.47-1.18-4.38,0-6.01,1.52-9.54.26-.61-1.27-.11-1.53-.88-.21-.61.13-1.38.01-1.78l2.61,1.58c30.57-7.74,60.73-17.18,91.43-24.42.52-.23.77-2.08,1.26-3.08,2.38.64,2.5,3.05.37,7.23,2.88,2.06,8.55,6.49,7.26,10.31Z"/>
    <path class="st97" d="M690.67,712.11c-.88,1.08-2.5,4.82-4.08,4.51-4.43-2.73-15.46-16.95-20.32-13.66l-80.05-60.23c6.28,32.79.65,42.94-9.15,72.43-2.55.78-9.94-.38-11.44-2.29-.71-1.76,1.68-2.52,2.84-2.12,9.66-22.52,12.04-43.02,7.87-67.15l1.49-2.4c1.26-3.01,9.05-7.36,12.2-6.86,30.91,27.99,68.59,50.81,100.64,77.77Z"/>
    <path class="st6" d="M680.76,725.83c-.54.8-1.49,6.41-1.52,7.62-32.73.92-65.9-4-98.35-1.52-2.34-1.48-.6-6.37.8-8.46l-.03-2.21,99.12,4.57Z"/>
    <path class="st20" d="M275.14,147.91c-28.57,28.08-66.22,50.52-92.25,80.82-1.64.81-2.26-.06-1.85-2.59-1.66-.52-2.93-1.57-2.63-3.44,26.59-29.77,61.34-51.58,89.87-79.37l6.86,4.57Z"/>
    <path class="st89" d="M407.04,189.84l-.97,7.3-1.31,1.09c-7.82-8.1-32.92-21.49-43.71-27.58-18.98-9.74-39.26-23.88-59.22-30.37-.48-6.01,5.17-1.58,4.57-7.62,34.71,15.75,68.25,36.93,100.64,57.18Z"/>
    <path class="st26" d="M395.61,739.56c4.04-1.84,6.41-1.28,7.11,1.69,1.87-.16,4.1-.32,3.56,2.12-31.03,20.52-62.5,40.95-93.78,60.99l.76-6.86c-3.36,1.41-7.38,2.48-10.67,3.81,30.05-21.65,63.82-38.94,93.02-61.76Z"/>
    <path class="st12" d="M296.49,725.07c3.56,25.81-.64,52.98,2.29,78.53-1.3.73-8.14-1.02-11.44-.76,5.09.64.44-76.02,1.52-78.53,1.84-1.57,7.43-2.45,7.62.76Z"/>
    <path class="st53" d="M773.01,492.53c-10.83,36.33-30.7,69.71-43.46,105.22-1.77,2.49-3.8.96-6.1-4.57,15.89-33.79,27.24-70.05,43.46-103.69,2.76.65,3.9.92,6.1,3.05Z"/>
    <path class="st64" d="M769.96,440.68l-4.19,3.03c-1.57-1.33-.86-3.19-1.86-4.98-.22-.39-3.18-3.8-3.85-1.86-14-30.27-26.64-61.13-40.41-91.49l5.34-5.34c11.88,32.95,32.5,67.51,44.98,100.64Z"/>
    <path class="st25" d="M756.24,462.79c-1.8,2.69-1.77,6.11-.76,9.15h-78.53l-.54-.91c4.6-4.27,4.31-6.41-.88-6.41l-.11-1.83h80.82Z"/>
    <path class="st77" d="M704.39,404.09l-1.57-2.87c-4.89-4.32-8.51-9.69.92-6.93.97,1.83,2.5,2.99,4.61,3.48l10.93,10.56c12.29,14.03,26.45,23.66,37.72,38.45-2.26,1.95,1.73,3.84,2.47,5.53,2.15,4.9-2.05,3.86-2.47,5.14l-52.61-53.37Z"/>
    <path class="st69" d="M761.57,489.48c-11.83,12.33-24.76,23.55-37.36,35.07-7.84,5.06-6.53-3.82-1.5-7.49l1.5-3.19c9.47-8.58,23.25-20.46,30.5-30.5.55,2.59,4.45,5.04,6.86,6.1Z"/>
    <path class="st35" d="M532.84,141.05c-.29,2.36.73,1.56,2.22,1.08,5.63-.73,13.89-11.62,16.08-2.6-33.99,19.42-68.81,37.71-101.82,58.71-1.32,7.86,2.95,5.77,7.21,9.55-1.15,2.13-2.15,4.28-2.99,6.45-8.89,4.48-10.49-8.26-6.77-14.12-2.12-3.34-2.58-6.57-1.62-10.28,29.58-12.88,59.28-32.99,87.68-48.8Z"/>
    <path class="st35" d="M548.09,131.9c.15-.12,2.23-2.14,2.29-2.29.07,1.54-.74,2.3-2.29,2.29Z"/>
    <path class="st2" d="M433.73,732.69l1.23,3.73c41.66,22.85,83.39,45.95,122.28,73.28-1.16.57-1.95,3.1-3.09,4.16-1.58,1.48-2.63-.04-3.01,2.7-38.28-28.18-80.57-50.41-121.97-73.61-3.72-1.88-3.81,2.08-8.4,1.18-2.38-4.31,4.36-5.31,7.75-4.8.68-1.17,2.85-11.98,5.21-6.63Z"/>
    <path class="st93" d="M311.74,115.12c-.99.56-2.38,1.09-3.05,1.52-1.93-3.67,3.09-7.15,3.05-1.52Z"/>
    <path class="st18" d="M530.56,231.01c5.29-.1,15.67,5.8,20.19,5.34,1.71-.17,3.11-2.67,4.71-3.69,6.49-4.13,18.06-4,22.51,3.16,2.03,3.26.82,5.6,4.43,5.86,3.92.74,1.97,8.6-1.52,9.15,3.03.73-6.64,10.76-8.39,8.39-.32,1.77-2.06,2.39-5.21,1.84-1.8,2.66-3.37,2.3-4.7-1.08-3.91,5.85-15.36-7.3-15.16-12.4-7.55-4.2-15.75-7.34-24.61-9.43-3.88-7.27,5.17-3.31,7.76-7.14Z"/>
    <path class="st19" d="M692.19,236.35c-2.93-1.88-5.07-4.43-8.06-5.34-3.43.04-11.69,3.18-12.69,6.69-6.74-.02-9.88,6.46-6.69,12.37l-.51,1.53c-27.47.25-54.94.5-82.41.75l-.94-1.52c1.19-2.01,3.14-7.11,1.52-9.15,25.21.86,56.02-.17,80.46-1.5,3.39-13.98,23.26-18.41,29.33-3.84Z"/>
    <path class="st78" d="M530.56,231.01c1.42,5.64-6.55,1.59-8.39,5.34-21.67-3.03-42.42-13.34-63.65-19.12-9.79-4.63-4.4-5.06-3.45-10.6-1.91.46-2.32-1.02-3.05-1.53l78.53,25.92Z"/>
    <path class="st57" d="M686.09,257.7c-.01,13.51,14.23,30.98,20.59,43.46-5.02-1.13-13.37-5.24-15.19-10.25,4.11-4.98,2.91-5.85-3.11-5-.12.1-1.05-.19-1.54.52-8.49,15.76-15.07,33.36-22.74,49.62-.23,2.27,5.72,6.42,6.57,10.64-.06,5.25-.43,15.99-5.16,18.51-3.13-2.66-2.8-.4-5.59.14-13.14,2.52-23.04-5.52-21.1-19.19-3,.62-10.32-2.53-4.52-4.83-.64-3.25.36-4.44,3-3.56.52-1.96.88-1.93,1.52,0l2.29.76.66-1.56c4.49-1.95,9.07-3.67,13.74-5.16,8.32-18.03,16.02-36.18,23.12-54.47-.83-2.64-.63-4.61.61-5.9,2.45-2.93-.35-10.65,5.34-9.14.58-.96-1.44-5.55,1.52-4.58Z"/>
    <path class="st11" d="M593.08,607.65c3.36-.9,2.57,6.29,2.29,8.39,1.82,13.11-5.95,21.12-17.54,25.16-3.19,5.46-24.97-5.56-22.11-11.44-1.76-.24-2.52-1.65-2.27-4.22-1.71-1.05-2.85-2.04-.78-3.41-.49-2.75.01-4.53,1.52-5.34-2.06-1.38-1.04-7.73.76-9.15,12.57-11.6,25.37-10.68,38.12,0Z"/>
    <path class="st56" d="M663.22,569.53l1.78-.53c1.68,2.39,3.27,4.18,5.08,5.86,1.57.5,3.55,13.28,2.29,16.01,1.1,2.81-2.23,8.25-5.34,7.62-8.08,6.96-19.86,4.51-25.92-3.81-5.47-.84-4.87-8.04-3.05-12.2.99-12.05,14.83-18.16,25.16-12.96Z"/>
    <path class="st75" d="M723.45,593.17c4.15-1.05,1.49,5.32,6.1,4.57-4.55,10.45,3.71,8.38,4.4,20.11-.32,1.41-3.06,2.21-2.11,5.82-3.13-1.81-5.07,3.36-7.84,4.73-7.56,4.03-14.33-3.08-18.08-8.55-1.55-1.78.33-8.75,3.05-8.39,4.61-6.31,12.77-10.11,14.49-18.3Z"/>
    <path class="st84" d="M641.11,594.69l-45.75,21.35c-2.45-1.86-.54-6.68-2.29-8.39l43-20.66,1.98-4.5c-.66,5.22-.08,7.9,3.05,12.2Z"/>
    <path class="st3" d="M708.97,611.47c-1.39,2.46-1.7,5.84-3.05,8.39-4.62-3.8-16.65-8.68-22.62-12.07-5.38-3.05-10.5-7.17-16.26-9.28,1.34-1.15,4.56-5.95,5.34-7.62.48,2.43,4.32,4.28,6.35,5.47,9.56,5.58,20.3,10.24,30.25,15.12Z"/>
    <path class="st38" d="M228.63,522.27c11.96-3.93,20.8-15.03,31.63-21.37,4.92,19.81,30.22,28.03,48.09,22.16,14.43-4.74,17.71-19.87,4.38-28.1-26.2-16.17-80.67-12.65-84.13-56.16-4.76-59.98,75.25-69.71,114.32-42.65,2.08,1.44,12.82,10.53,11.92,12.52l-24.58,23.54c-.66.28-1.15,0-1.74-.27-1.83-.83-7.47-7.75-10.76-9.87-10.54-6.79-31.79-9.09-43.16-3.64-12.05,5.78-9.91,17.77.78,23.91,27.64,15.88,71.71,9.22,82.29,49.61,17.63,67.33-85.33,85.71-122.58,41.76-1.26-1.48-7.77-10.01-6.47-11.44Z"/>
    <polygon class="st38" points="621.29 388.07 621.29 421.62 571.73 421.62 570.97 556.57 533.23 556.57 531.32 421.62 478.71 421.62 478.71 388.07 621.29 388.07"/>
    <path class="st38" d="M461.18,388.07c-.16,12.58.2,25.19.03,37.77-.33,24.45.75,52.18-.8,76.2-2.62,40.68-36.74,62.57-75.63,55.06-3.56-.69-18.02-4.91-18.73-8.63-.67-3.53,7.95-22.19,6.85-27.96.13-.6.47-1.08,1.07-1.26,1.61-.49,14.76,5.62,18.98,6.05,14.78,1.49,30.11-6.77,30.11-23.25v-113.98h38.12Z"/>
    <path class="st49" d="M282,277.52c3.5-5.14,7.9,2.69,6.85,6.5-4.54,12.05-8.98,24.15-13.3,36.31-2.77,3.63-2.42,4.37,1.07,2.22,25.63-.17,50.76-.38,75.39-.63l1.66,1.35.81,1.56c3.74,2.98,4.23,5.51,1.48,7.58-24.79-2.62-56.44-1.85-81.19-.76-17.52,2.03-43.27,10.88-60.62,16.77.58-3.22,3.19-8.65-.76-9.15,14.62-7.06,32.15-9.49,47.76-15.17,6.74-15.54,13.09-31.12,19.06-46.74l1.8.16Z"/>
    <path class="st95" d="M403.23,324.03c1.98-2.03,199.59-6.68,154.12,6.48l-.11,1.14c-53.61-1.02-110.57-2.06-163.92.76-2.35-.53,1.05-7.38,2.05-8.16,1.17-.9,6.28-.88,7.86-.23Z"/>
    <path class="st92" d="M361.3,308.78c1.45-.3,3.23-.33,5.33-.11,10.97-5.15,25.2.45,26.83,13.08l8.57.05c1.16.11,1.37,1.05,1.2,2.22-2.02.06-4.17-.37-6.11.37-2.87,3.29-4.1,10.38-6.2,14.39-9.93,15.93-36.99,8.92-35.12-10.79-6.97-3.2,1.08-6.24,1.68-11.59-3.63-4.34-2.78-12.49,3.81-7.62Z"/>
    <path class="st46" d="M451.26,607.65c2.4,1.26,6.76,3.84,6.08,6.86h9.8c1.6,2.22,1.94,3.84-1.61,3.87-49.97-.7-100.09,1.66-149.98-1.58,2.58-3.45.39-5.31.76-9.15,44.97-.04,89.98.06,134.95,0Z"/>
    <path class="st94" d="M572.49,259.22l7.01,64.65c19.23,4.69,38.91,7.95,57.79,13.88-2.72-.6-.95,2.12-1.63,4.11-.5,1.47-3.62.65-1.42,3.52-25.9-7.38-49.9-13.19-77.01-13.72-5.18-3.22,4.25-2.44,5.33-4.97.65-1.51-2.14-1.26-2.28-2.66l.85-1.52c2.76.34,5.46.21,8.1-.4l-8.05-61.01,1.39-1.12c2.32.22,1.05.14,1.9,2.28,1.96-4.74,4.67-1.71,8.01-3.05Z"/>
    <path class="st87" d="M554.96,607.65c.47,3.26-.35,6.09-.76,9.15-38.6,3.35-79.43-1.43-118.18-.77,4.15-4.36,14.75.27,20.58-2.29-1.49-2.25-5-2.96-5.34-6.09,34.55-.04,69.14.03,103.69,0Z"/>
    <path class="st62" d="M724.21,513.88c1.59,6.22-5.39,5.37-3.8,11.44l3.8-.76c-18.17,16.62-36.54,33.13-54.13,50.32-4.23.82-3.36-2.65-6.86-5.34,20.1-18.79,40.95-36.81,60.99-55.66Z"/>
    <path class="st86" d="M675.42,462.79c1.9,1.61,5.01-.33,5.72,2.97.65,3-2.7,4.53-4.2,6.18-5.83,6.42-11.06,12.76-20.35,7.01-19-12.62,9.26-36.79,18.83-16.16Z"/>
    <path class="st36" d="M173.74,471.18c-1.12-2.87-1.27-7.54,2.29-8.39.78-.99.97-2.26,2.26-3.46,12.66-11.74,28.39,3.43,19.5,15.69-6.31,8.84-19.39,4.45-24.05-3.85Z"/>
    <path class="st0" d="M669.32,358.34c22.77,20.57,43.81,43.15,65.57,64.81-.65,1.8-2.07-.18-2.68-.75-4.59-4.27-5.3-4.78-10.32-8.02-1.01-.65-.02-1.97-.66-3.07-.46-.8-12.49-12.07-13.38-12.63-1.33-.83-2.76.31-4.21.07.96-3.73-2.24-4.35-5.34-3.44,2.55,1.93,6.94,5.81,6.1,8.77l-38.88-38.88c1.12-1.98,1.04-6.94,3.81-6.86Z"/>
    <path class="st67" d="M179.08,285.15l1.85.41c7.6,14.69,16.9,30.89,20.26,47.62-1.83-.27-7.59,2.24-9.15,3.05,1.21-1.97-.42-4.87-1.16-6.85-5.56-14.88-13.38-29.16-20.19-43.47,2.81-2.49,5.9-.11,8.39-.76Z"/>
    <path class="st5" d="M306.4,695.33c4.05-1,6.29,5.08,3.81,7.62.66,1.6.1,2.1-1.52,2.29,3.04,1,3.31,7.94-.76,7.62-1.09,1.35-2.67,3.63-4.18,5.35-1.79,2.04-7.32,4.85-7.26,6.85-2.88-1.42-4.19.39-7.62-.76-5.77-1.83-7.84-7.02-11.49-11.01-.85-.81-3.56-1.39-3.76-2.38-.08-.41,2.86-5.73,1.52-7.96,3.54-7.19,6.92-9.13,13.6-13.46.41-15.87,1.34-31.8,3.17-47.53,2.41-.91,6.27-1.94,8.39-3.05l-3.63,52.9c3.01,4.37,4.69,4.91,9.73,3.52Z"/>
    <path class="st72" d="M166.88,639.68c4.59,14.1,11.67,29.41,14.3,43.87-.29,1.63-7.67,1.63-8.6.37-3.82-12.33-8.9-30.85-14.09-43.48,2.51,1.65,3.31-2.09,3.05-3.81l5.33,3.05Z"/>
    <path class="st34" d="M188.23,211.19c3.35,3.43-7.9,9.53-8.38,11.83-.68,1.69,3.8,1.73,3.78,3.04-3.69,2.52,2.69,4.76,4.16,7.3.56.79,3.4,6.27,3.48,6.81.1.67-1.45,8.52-1.73,8.94-.81,1.23-10.16,5.6-12.2,6.48-4.17.86-4.12.08-6.66,3.63-5.99-3.27-10.2-7.81-11.85-14.45-.3-.54-1.68-.57-1.88-1.34-.15-.58-.15-4.3.02-4.8.26-.79,9.26-9.87,10.66-11.06,7.29-5.04,14.2-10.08,20.59-16.38Z"/>
    <path class="st42" d="M273.62,244.74c1.86-2.91,9.63,8.06.76,9.15-14.06-2.98-29.4-1.7-43.83-3.06-13.31-.83-26.64-2.47-40.04-2.28,1.81-4.23,3.16-.8,3.81-1.53.99-1.12-1.06-5.74-2.28-6.86l81.58,4.57Z"/>
    <path class="st52" d="M423.05,180.69c1.86,1.11,5.93-.09,8.39.76,6.73.97,16.48,7.16,14.8,14.52,2.46,3.6,2.64,3.92.48,8.01-.43,3.05.64,5.69-.8,8.73,2.37,1.66-4.79,7.74-6.67,8.83-7.41,4.32-16.06,3.35-23.21-1.08-2.44-1.51-7.46-4.86-5.96-7.75-1.28-.03-1.93-.83-1.95-2.41-3.06-1.47-3.93-2.95-2.63-4.45,3.85-2.53,1.9-4.87-.76-7.62-.7-1.13.56-8.01.82-8.34.14-.18,1.06-.09,1.47-.04,4.12,2.67,7.38-5.23,7.62-8.39,2.75.74,6.12-.77,8.39-.76Z"/>
    <path class="st45" d="M431.44,181.46c-1.52-.06-3.06.09-4.57,0,1.31-2.02,3.51-.2,4.57,0Z"/>
    <path class="st20" d="M176.03,221.86c1.79-3.05,5.01-4.69,7.62-6.86-.08,1.53-7.11,9.57-7.62,6.86Z"/>
    <path class="st65" d="M411.62,712.11c.49-2.56,8.37-3.12,8.79-.7l1.12,1.46c4.65-2.55,10.03,4.23,11.98,8.46,8.29-.47,6.58,8.7.98,10.6-.25.27-.52.5-.76.76-.09.1-1.08-.34-1.59.45-.92,1.41-1.1,6.49-2.97,7.61-.85.51-7.05-1.49-8.39,3.37-10.09,4.56-6.47-3.13-14.49-.76-1.18-1.05-3.4-.36-4.4-.94-.55-.32-.73-2.46-2.15-2.72-1.04-.19-3.23,1.57-4.12-.15,2.81-2.29,7.49-5.49,3.81-9.15-.88-3.64-.56-6.63.95-9l3.62-.15c-3.65-1.75,5.26-11.86,7.62-9.15Z"/>
    <path class="st80" d="M551.91,722.02c-.57,1.87-.88,3.92-.93,6.16-1.29.96-2,1.96-2.12,2.99-37.62-3.04-76.68.57-114.36.76,2.86-3.85,3.27-10.11,9.41-9.99,35.52-.95,72.21-3.73,108,.08Z"/>
    <path class="st41" d="M565.63,712.87c16.13-.85,10.74,6.79,18.3,9.16.64.74-1.53,2.64-1.92,3.78-.64,1.9-.56,4.35-1.13,6.12-2.65,8.19-15.34,10.68-22.39,6.76-2.59-1.44-5.61-6.63-6.76-7.36-.79-.5-1.99-.07-2.87-.17-3.49-1.45.67-3,.77-3.55.6-3.15-1.79-2.81-3.06-4.83,1.92-.17,3.9.67,5.34-.77-1.93-5.5,9.83-13.86,13.72-9.15Z"/>
    <path class="st8" d="M273.62,244.74c3.3-10.14,14.99-15.2,24.01-8.38,2.71,2.05,2.85,5.35,6.49,4.57,4.07-.91,1.95,3.75.09,5.86,3.51.69,2.61,4.44.38,6.56-.02,2.15-.43,3.85-1.23,5.11,1.86,2.45,3.96,4.87,6.86,6.1,2.17-.75,3.4.33,2.29,2.29,2.35,5.97-4.14,3.14-6.6,0-2.61.54-4.98.29-7.13-.76-4.8,1.35-4.36,12.62-9.91,15.25-3.03-.35-1.62-5.21-6.86-3.81,1.48-4.2,2.45-9.4,3.82-13.72-5.28.2-10.43-5.24-11.44-9.92-.55-2.05,2.76-2.03,2.88-3.42.04-.49-2.5-5.48-3.64-5.73Z"/>
    <path class="st21" d="M405.52,205.85c1.86,3.55,4.55,1.85,4.57,6.86-31.2,16.23-70.54,22.8-102.13,37.41-.98-.62-4.25-1.9-5.37-2.35-1.3-1.83,4.39-4.61,1.52-6.85,32.86-13.69,68.81-21.04,101.4-35.07Z"/>
    <path class="st39" d="M403.99,721.26c-.79,1.27-2.45.22-3.1,1.26-1.29,2.09,1.27,5.85-1.48,7.89l-91.49-17.54c2.92-3.62.6-4.46.76-7.62l.7-.95c31.31,4.68,62.62,9.78,93.93,15.3l.67,1.66Z"/>
    <path class="st54" d="M692.19,292.77c-1.5-1.73-3.28-4.58-3.81-6.86-.02-3.73,7.45-1.54,7.6,1.18.2.89-3.86,3.48-3.79,5.68Z"/>
    <path class="st94" d="M641.11,338.52c-.84,0-1.91.21-2.29-.76.81.11,1.91-.29,2.29.76Z"/>
    <path class="st33" d="M552.67,622.14c-.36,1.6,1.75,1.66,2.14,2.79.51,1.45-.03,2.9.91,4.84l-116.65,25.16-.9-.57c1.51-3.58,1.02-5.8-1.47-6.67l.08-1.15,115.89-24.4Z"/>
    <path class="st28" d="M312.5,266.85c16.13,14.11,33.11,27.31,48.8,41.93-6.22-1.93-4.12,2.29-3.81,7.62-19.1-16.77-38.36-35.14-58.71-50.32,2.41.42,4.88-1.14,7.2-.78,2.61.41,5.29,7.04,6.52,1.54Z"/>
    <path class="st73" d="M397.13,657.21c6.49-2.37,7.63-1.75,9.25-8.67,2.59-4.74,11.54-9.95,16.95-9.58,6.35.44,9.13,4.34,13.45,7.57,1.76,1.32,3.16-.09,3.65,2.85s-.82,3.24-1.36,5.53c-.15,7.37-6.14,14.53-12.96,16.77-.91,2.72-7.87,1.98-8.39-.76l-1.47,1.08c-3.51-2.04-6.63-4.6-9.38-7.69-2.59.73-4.56.65-5.92-.25l-1.89.15c.03-3.03-.71-4.57-1.92-7.01Z"/>
    <path class="st68" d="M397.13,657.21c3.64,1.37,3.07,2.8,3.2,6.35l.62.51c-29.4,14.1-60.13,27.82-90.73,38.88-.79-3.08-.45-6.13-3.81-7.62,29.23-9.77,60.87-28.19,90.73-38.12Z"/>
    <path class="st90" d="M426.1,671.7c-.02,13.7-7.44,27.69-4.57,41.17-1.7-.68-1.72-1.44-1.85-1.44-1.67.07-6.74.4-8.06.68l6.1-41.17c1.98.62,6.41,1.14,8.39.76Z"/>
    <path class="st28" d="M310.21,264.56c-2.99.07-5.96-3.53-6.86-6.1,2.39,1.9,4.58,4.07,6.86,6.1Z"/>
  </g>
</svg>